<svg width="32" height="32" viewBox="0 0 32 32" fill="none" xmlns="http://www.w3.org/2000/svg">
<rect width="32" height="32" rx="16" fill="#FAF4EE" fill-opacity="0.16"/>
<path d="M12.9346 16.0001C12.9346 14.3064 14.3072 12.9331 16.0008 12.9331C17.6944 12.9331 19.0677 14.3064 19.0677 16.0001C19.0677 17.6937 17.6944 19.067 16.0008 19.067C14.3072 19.067 12.9346 17.6937 12.9346 16.0001ZM11.2767 16.0001C11.2767 18.6092 13.3916 20.7242 16.0008 20.7242C18.6099 20.7242 20.7249 18.6092 20.7249 16.0001C20.7249 13.3909 18.6099 11.2759 16.0008 11.2759C13.3916 11.2759 11.2767 13.3909 11.2767 16.0001ZM19.8079 11.0887C19.8079 11.698 20.302 12.193 20.9122 12.193C21.5215 12.193 22.0165 11.698 22.0165 11.0887C22.0165 10.4793 21.5223 9.98512 20.9122 9.98512C20.302 9.98512 19.8079 10.4793 19.8079 11.0887ZM12.2836 23.4886C11.3867 23.4477 10.8992 23.2984 10.5752 23.172C10.1456 23.0048 9.83946 22.8057 9.51694 22.4839C9.19516 22.1621 8.99526 21.856 8.82879 21.4264C8.70246 21.1024 8.55309 20.6149 8.51222 19.718C8.46763 18.7482 8.45871 18.4569 8.45871 16.0001C8.45871 13.5433 8.46837 13.2527 8.51222 12.2822C8.55309 11.3852 8.7032 10.8984 8.82879 10.5737C8.996 10.1442 9.19516 9.83798 9.51694 9.51546C9.83871 9.19368 10.1449 8.99378 10.5752 8.82732C10.8992 8.70099 11.3867 8.55162 12.2836 8.51074C13.2534 8.46616 13.5447 8.45724 16.0008 8.45724C18.4576 8.45724 18.7481 8.4669 19.7187 8.51074C20.6156 8.55162 21.1024 8.70173 21.4271 8.82732C21.8567 8.99378 22.1629 9.19368 22.4854 9.51546C22.8071 9.83724 23.0063 10.1442 23.1735 10.5737C23.2998 10.8977 23.4492 11.3852 23.4901 12.2822C23.5347 13.2527 23.5436 13.5433 23.5436 16.0001C23.5436 18.4561 23.5347 18.7474 23.4901 19.718C23.4492 20.6149 23.2991 21.1024 23.1735 21.4264C23.0063 21.856 22.8071 22.1621 22.4854 22.4839C22.1636 22.8057 21.8567 23.0048 21.4271 23.172C21.1031 23.2984 20.6156 23.4477 19.7187 23.4886C18.7489 23.5332 18.4576 23.5421 16.0008 23.5421C13.5447 23.5421 13.2534 23.5332 12.2836 23.4886ZM12.2078 6.85578C11.2284 6.90037 10.5596 7.05569 9.97471 7.28309C9.3698 7.51792 8.85703 7.83301 8.34501 8.34428C7.83374 8.85556 7.51865 9.36832 7.28382 9.97398C7.05642 10.5588 6.9011 11.2276 6.85652 12.2071C6.81119 13.188 6.80078 13.5016 6.80078 16.0001C6.80078 18.4985 6.81119 18.8121 6.85652 19.793C6.9011 20.7725 7.05642 21.4413 7.28382 22.0261C7.51865 22.631 7.83299 23.1445 8.34501 23.6558C8.85629 24.1671 9.36905 24.4814 9.97471 24.717C10.5603 24.9444 11.2284 25.0997 12.2078 25.1443C13.1895 25.1889 13.5024 25.2001 16.0008 25.2001C18.4999 25.2001 18.8128 25.1897 19.7937 25.1443C20.7732 25.0997 21.442 24.9444 22.0269 24.717C22.6318 24.4814 23.1445 24.1671 23.6565 23.6558C24.1678 23.1445 24.4822 22.631 24.7177 22.0261C24.9451 21.4413 25.1012 20.7725 25.145 19.793C25.1896 18.8113 25.2 18.4985 25.2 16.0001C25.2 13.5016 25.1896 13.188 25.145 12.2071C25.1005 11.2276 24.9451 10.5588 24.7177 9.97398C24.4822 9.36906 24.1678 8.8563 23.6565 8.34428C23.1453 7.83301 22.6318 7.51792 22.0276 7.28309C21.442 7.05569 20.7732 6.89963 19.7945 6.85578C18.8135 6.8112 18.4999 6.80005 16.0015 6.80005C13.5024 6.80005 13.1895 6.81045 12.2078 6.85578Z" fill="white"/>
</svg>
