<svg width="189" height="56" viewBox="0 0 189 56" fill="none" xmlns="http://www.w3.org/2000/svg">
<g clip-path="url(#clip0_17910_327664)">
<path d="M64.9383 15.0784H45.2835C43.4667 15.0784 42.0171 16.5247 42.0171 18.3022V37.6977C42.0171 39.4753 43.4847 40.9216 45.2835 40.9216H64.9215C66.7383 40.9216 68.1879 39.4753 68.1879 37.6977V18.3197C68.2059 16.5247 66.7383 15.0784 64.9383 15.0784ZM58.5963 19.8184C58.5963 19.3478 58.9815 18.9644 59.4699 18.9644C59.9595 18.9644 60.3435 19.3478 60.3435 19.8184V31.3371C60.3435 31.8077 59.9595 32.191 59.4699 32.191C58.9815 32.191 58.5963 31.8077 58.5963 31.3371V19.8184ZM54.2463 19.3827C54.2463 18.9121 54.6303 18.5288 55.1199 18.5288C55.6095 18.5288 55.9935 18.9121 55.9935 19.3827V31.8773C55.9935 32.3479 55.6095 32.7313 55.1199 32.7313C54.6303 32.7313 54.2463 32.3479 54.2463 31.8773V19.3827ZM49.8783 19.8184C49.8783 19.3478 50.2635 18.9644 50.7519 18.9644C51.2415 18.9644 51.6255 19.3478 51.6255 19.8184V31.3371C51.6255 31.8077 51.2415 32.191 50.7519 32.191C50.2635 32.191 49.8783 31.8077 49.8783 31.3371V19.8184ZM45.5115 21.5436C45.5115 21.073 45.8955 20.6896 46.3851 20.6896C46.8735 20.6896 47.2575 21.073 47.2575 21.5436V29.2982C47.2575 29.7688 46.8735 30.1521 46.3851 30.1521C45.8955 30.1521 45.5115 29.7688 45.5115 29.2982V21.5436ZM64.4139 34.6829C64.2747 34.8049 61.0419 37.4711 55.1199 37.4711C49.1979 37.4711 45.9651 34.7875 45.8259 34.6829C45.4587 34.3692 45.4239 33.8291 45.7383 33.4631C46.0527 33.0972 46.5939 33.0623 46.9611 33.376C47.0139 33.4109 49.8963 35.7634 55.1199 35.7634C60.4131 35.7634 63.2607 33.4109 63.2787 33.3935C63.6459 33.0797 64.1871 33.1321 64.5015 33.4805C64.8159 33.8291 64.7811 34.3867 64.4139 34.6829ZM64.7115 29.2982C64.7115 29.7688 64.3275 30.1521 63.8379 30.1521C63.3483 30.1521 62.9643 29.7688 62.9643 29.2982V21.5436C62.9643 21.073 63.3483 20.6896 63.8379 20.6896C64.3275 20.6896 64.7115 21.073 64.7115 21.5436V29.2982Z" fill="#1B1B1B" fill-opacity="0.55"/>
<path d="M78.3561 31.737C78.3561 32.1726 78.0249 32.5212 77.5533 32.5212C77.0985 32.5212 76.7661 32.1726 76.7661 31.737V24.2437C76.7661 23.8081 77.0985 23.4595 77.5701 23.4595C78.0249 23.4595 78.3561 23.8081 78.3561 24.2437V31.737Z" fill="#1B1B1B" fill-opacity="0.55"/>
<path d="M88.6282 24.2451V31.0936C88.6282 32.0172 88.1386 32.54 87.3358 32.54H87.2651C86.5139 32.54 86.1646 32.1043 85.8334 31.477L84.2254 28.3751L82.8106 25.1686L82.8454 28.2705L82.8635 31.7383C82.8635 32.1739 82.531 32.5225 82.0594 32.5225C81.6046 32.5225 81.2734 32.1739 81.2734 31.7383V24.8898C81.2734 24.0359 81.7618 23.4435 82.6354 23.4435H82.7062C83.509 23.4435 83.8414 23.879 84.1558 24.5065L85.7278 27.5909L87.073 30.5881L87.0383 27.7129L87.0214 24.2451C87.0214 23.8094 87.3527 23.4608 87.8243 23.4608C88.2959 23.4608 88.6282 23.8268 88.6282 24.2451Z" fill="#1B1B1B" fill-opacity="0.55"/>
<path d="M94.9867 31.7373C94.9867 32.173 94.6555 32.5215 94.1839 32.5215C93.7291 32.5215 93.3979 32.173 93.3979 31.7373V24.9586H91.4227C91.0207 24.9586 90.6895 24.6623 90.6895 24.2092C90.6895 23.7736 91.0207 23.4773 91.4227 23.4773H96.9619C97.3627 23.4773 97.6951 23.7736 97.6951 24.2266C97.6951 24.6623 97.3627 24.9586 96.9619 24.9586H94.9867V31.7373Z" fill="#1B1B1B" fill-opacity="0.55"/>
<path d="M99.7767 31.4761V24.436C99.7767 23.7738 100.143 23.4078 100.824 23.4252H105.401C105.803 23.4252 106.136 23.7389 106.136 24.1746C106.136 24.6102 105.803 24.9064 105.401 24.9064H101.349V27.0848H104.913C105.315 27.0848 105.629 27.381 105.629 27.7993C105.629 28.2174 105.315 28.5137 104.913 28.5137H101.349V31.023H105.384C105.786 31.023 106.118 31.3367 106.118 31.7724C106.118 32.2081 105.786 32.5043 105.384 32.5043H100.772C100.126 32.5217 99.7407 32.1558 99.7767 31.4761Z" fill="#1B1B1B" fill-opacity="0.55"/>
<path d="M115.165 31.4936C115.375 31.8595 115.236 32.3301 114.799 32.5566C114.362 32.7657 113.89 32.6088 113.681 32.2429L111.916 28.9842H110.239L110.256 31.755C110.256 32.1907 109.925 32.5392 109.452 32.5392C108.998 32.5392 108.666 32.1907 108.666 31.755V24.4534C108.666 23.7912 109.033 23.4252 109.715 23.4427H112.702C114.781 23.4427 115.637 24.7845 115.637 26.1611C115.637 27.4682 114.869 28.4266 113.558 28.688L115.165 31.4936ZM110.221 27.5552H112.738C113.593 27.5552 114.03 27.015 114.03 26.2309C114.03 25.4641 113.558 24.9239 112.72 24.9239H110.221V27.5552Z" fill="#1B1B1B" fill-opacity="0.55"/>
<path d="M118.921 31.8419C117.96 30.988 117.542 29.6636 117.542 27.9908C117.542 26.3004 117.96 24.9934 118.904 24.1569C119.481 23.6516 120.285 23.3031 121.42 23.3031C122.433 23.3031 123.202 23.5296 123.778 24.0175C124.285 24.4183 124.651 24.9934 124.879 25.795C125.001 26.2133 124.704 26.6315 124.215 26.7186C123.761 26.7884 123.394 26.5095 123.255 26.0913C123.098 25.6905 122.904 25.3942 122.661 25.1852C122.328 24.8889 121.926 24.7669 121.385 24.7669C120.808 24.7669 120.32 24.9238 119.952 25.3071C119.411 25.8473 119.183 26.7884 119.183 27.9908C119.183 29.1757 119.393 30.1342 119.952 30.6744C120.32 31.0403 120.808 31.2146 121.367 31.2146C121.944 31.2146 122.398 31.0578 122.765 30.7266C122.957 30.5524 123.114 30.3258 123.237 30.047C123.394 29.6462 123.743 29.3674 124.198 29.472C124.635 29.5765 124.914 30.0122 124.774 30.4305C124.547 31.1274 124.145 31.6851 123.621 32.0684C123.045 32.4867 122.31 32.6959 121.402 32.6959C120.214 32.6784 119.481 32.3298 118.921 31.8419Z" fill="#1B1B1B" fill-opacity="0.55"/>
<path d="M126.662 27.9909C126.662 25.1504 127.832 23.3032 130.593 23.3032C133.318 23.3032 134.506 25.098 134.506 27.9909C134.506 30.9185 133.318 32.6785 130.593 32.6785C127.815 32.6785 126.662 30.9185 126.662 27.9909ZM132.881 27.9909C132.881 25.83 132.095 24.7844 130.575 24.7844C129.09 24.7844 128.303 25.83 128.303 27.9909C128.303 30.1517 129.072 31.1973 130.575 31.1973C132.077 31.1973 132.881 30.1517 132.881 27.9909Z" fill="#1B1B1B" fill-opacity="0.55"/>
<path d="M146.84 31.7372C146.84 32.1729 146.508 32.5213 146.036 32.5213C145.583 32.5213 145.25 32.1729 145.25 31.7372V28.339L145.285 25.0281L144.185 28.3913L143.066 31.7023C142.874 32.2774 142.49 32.5213 141.983 32.5213C141.46 32.5213 141.074 32.2774 140.882 31.7023L139.729 28.4088L138.682 25.0977L138.716 28.3564V31.7546C138.716 32.1902 138.384 32.5388 137.912 32.5388C137.459 32.5388 137.126 32.1902 137.126 31.7546V24.9757C137.126 24.0347 137.633 23.4945 138.524 23.4945C139.363 23.4945 139.835 23.9302 140.096 24.7492L141.268 28.217L141.983 30.5695L142.699 28.217L143.87 24.7492C144.132 23.9302 144.587 23.4945 145.442 23.4945C146.334 23.4945 146.822 24.0347 146.822 24.9757L146.84 31.7372Z" fill="#1B1B1B" fill-opacity="0.55"/>
</g>
<defs>
<clipPath id="clip0_17910_327664">
<rect width="104.824" height="25.8432" fill="white" transform="translate(42.0171 15.0784)"/>
</clipPath>
</defs>
</svg>
