<svg width="167" height="56" viewBox="0 0 167 56" fill="none" xmlns="http://www.w3.org/2000/svg">
<g clip-path="url(#clip0_2643_7701)">
<path fill-rule="evenodd" clip-rule="evenodd" d="M82.7784 21.1814C82.8181 20.9826 83.6535 16.5078 83.6535 16.5078L83.6331 16.4889C83.8122 16.4889 85.2041 15.932 86.0195 15.4548C86.8349 14.9776 88.7842 13.6249 89.3208 13.247C89.3555 13.2226 89.4003 13.1903 89.4544 13.1513L89.4547 13.151C90.2361 12.5876 92.9508 10.6299 95.387 10.7412C96.3022 10.7412 98.3697 10.9399 99.603 13.5255C99.1258 8.95135 96.4012 8.29503 93.9554 8.23533C91.8804 8.18533 87.8002 10.7846 86.7391 11.4606C86.6616 11.51 86.6002 11.5492 86.5568 11.5762C86.3416 11.7108 86.1308 11.8636 85.8908 12.0377C85.4212 12.3782 84.8395 12.8001 83.8919 13.3264C82.2611 14.5196 80.511 14.6787 79.9143 14.6787C79.3177 14.6787 78.3633 14.3209 78.3633 14.3209L77.8064 17.2246C77.8064 17.2246 78.1642 17.4634 78.7211 17.4634C79.2777 17.4634 79.5561 17.5031 79.5561 17.5031C79.6359 17.8613 79.0789 20.3671 79.0789 20.3671C79.815 20.9637 79.8947 21.8785 79.9143 22.316C79.9344 22.7536 79.7356 23.1511 79.4371 23.0717C79.3789 23.0252 79.3887 22.9177 79.4029 22.7611C79.413 22.6495 79.4254 22.513 79.4171 22.3557C79.4171 21.0431 77.8857 20.3271 77.3087 20.3868C76.7321 20.3868 74.8029 20.6649 74.5444 23.2304C74.5444 26.6114 76.8115 27.2677 78.1638 27.2677C79.5161 27.2677 80.3715 27.0489 80.8884 26.3329C81.6245 25.8757 82.4995 22.8125 82.5392 22.6735C82.5789 22.5344 82.6582 22.4747 82.6582 22.4747C82.4995 24.4834 82.7977 26.2932 85.2638 26.2932C87.7297 26.2932 88.8639 24.4633 88.8639 24.4633C88.8639 24.4633 89.5599 25.8156 90.7732 25.8156C91.9864 25.8156 93.1596 24.2842 93.1596 24.2842C93.1596 24.2842 93.5375 25.0996 94.4519 25.0996C95.6251 25.0996 96.6796 23.4688 96.6796 23.4688C96.6796 23.4688 96.7586 24.2245 97.8332 24.2245C98.907 24.2245 99.603 23.4091 99.603 23.4091C99.603 23.4091 99.2849 26.5913 99.3049 26.5913C98.7003 26.6666 98.3479 27.0288 97.6671 27.7285L97.5543 27.8443C96.7987 28.62 96.68 29.7932 96.68 29.7932C96.68 29.7932 97.9125 28.719 98.8277 28.4409C99.6831 28.003 101.115 27.9633 101.115 27.9633L102.507 16.2494L100.539 16.5675L99.8225 21.6986C99.8225 21.6986 99.7232 22.5938 99.0071 22.5938C98.2911 22.5938 98.2911 21.8581 98.2911 21.8581L98.8874 16.8264L96.8788 17.0848C96.8788 17.0848 96.3222 21.5199 96.2425 22.2556C96.1627 22.9916 95.6254 23.3891 95.1089 23.3695C94.5917 23.3494 94.79 22.395 94.79 22.395L95.7849 13.8429L93.5178 13.9623C93.5178 13.9623 92.404 22.6531 92.3643 23.0706C92.3246 23.4881 91.827 24.1444 91.3297 24.1444C90.8329 24.1444 91.0116 23.3687 91.0116 23.3687L92.1251 14.0613L89.8184 14.2007C89.8184 14.2007 89.2021 19.6897 88.884 21.9571C88.1476 24.2838 86.875 24.6617 86.3381 24.6617C85.7018 24.7807 84.9457 23.9854 84.9657 23.2894C87.9292 23.3294 88.327 20.4257 88.327 20.0278C88.327 19.63 88.2673 18.218 86.3581 18.0192C84.4811 18.1223 83.4092 20.2835 83.0522 21.0033C82.9969 21.1148 82.9588 21.1917 82.9375 21.2211C82.7784 21.4398 82.7387 21.3805 82.7784 21.1814ZM90.9498 39.4852L90.8525 39.503C88.7084 39.6996 85.7541 41.6698 84.6735 42.3904L84.673 42.3908C84.5532 42.4707 84.4565 42.5352 84.3865 42.5802C84.1611 42.6995 83.8575 42.8964 83.4931 43.1327C82.1449 44.007 79.9639 45.4214 77.8309 45.4458C75.7017 45.4204 73.771 43.6406 73.0634 42.9883L73.0633 42.9883L73.0633 42.9882C72.9067 42.8439 72.8101 42.7548 72.7844 42.7521C74.8701 46.5521 76.8651 47.7026 79.7462 47.7654C82.3476 47.6871 85.3518 45.8659 86.5353 44.9633C87.7183 44.061 90.226 42.3478 92.017 41.8026C93.4377 41.3715 95.1977 41.3318 95.1977 41.3318L96.6036 29.6833L94.6604 30.0018L93.9444 35.1329C93.9444 35.1329 93.805 35.9883 93.0889 35.9883C92.3729 35.9883 92.3597 35.2659 92.3597 35.2659L92.9699 30.2466L90.9613 30.5055C90.9613 30.5055 90.3915 34.9538 90.3126 35.6902C90.2328 36.4259 89.6551 36.7841 89.1378 36.7641C88.6206 36.744 88.8057 35.8289 88.8057 35.8289L89.8678 27.2636L87.5743 27.3841C87.5743 27.3841 86.4865 36.0484 86.4468 36.4659C86.4072 36.8838 85.8839 37.5398 85.3866 37.5398C84.8894 37.5398 85.067 36.7773 85.067 36.7773L86.1944 27.4823L83.8877 27.6082C83.8877 27.6082 83.2986 33.045 82.9805 35.312C82.2445 37.6388 80.998 38.0963 80.461 38.0963C79.5198 37.9509 78.9765 37.3679 78.9965 36.6719C81.9599 36.7119 82.4496 33.8603 82.4496 33.4625C82.4496 33.0646 82.2146 31.3991 80.4807 31.3991C78.2046 31.4563 77.4303 33.618 77.1521 34.3943L77.1521 34.3943C77.1036 34.5299 77.0701 34.6232 77.0465 34.6557C76.9834 34.7425 76.9241 34.8992 76.8644 35.0566C76.7735 35.2965 76.6818 35.5383 76.5753 35.5383C76.5591 35.0895 76.4487 34.2231 76.1752 33.6306C75.902 33.0374 75.2604 31.8823 74.6351 31.8986C74.0097 31.9148 73.8979 31.8668 73.8979 31.8668C73.8979 31.8668 73.8186 31.7871 73.9304 31.7384C73.9371 31.7354 73.9504 31.7307 73.9693 31.724C74.2663 31.6183 75.9662 31.0137 75.9662 28.9491C75.9662 26.7527 74.1711 26.4803 73.6742 26.4803L73.6597 26.4803C73.121 26.48 70.1676 26.4782 68.9769 29.7981C68.7842 30.0876 68.3515 34.0791 68.3515 34.0791C68.3515 34.0791 69.1212 34.4804 69.1212 35.5217C69.1212 36.4949 68.7146 36.4614 68.6091 36.4527C68.6016 36.4521 68.5957 36.4516 68.5915 36.4516C68.4835 36.3825 68.5453 36.2038 68.6126 36.0094C68.6545 35.8882 68.6986 35.7608 68.7048 35.6502C68.7211 35.3615 68.3032 34.4169 66.9248 34.3357C65.5461 34.2552 64.0237 36.0174 64.1677 37.044C64.1356 37.9754 64.6324 40.4911 67.5339 40.4911C70.4353 40.4911 70.8366 38.6314 70.8366 38.6314C70.8366 38.6314 71.253 40.0585 72.4874 40.0585C73.7218 40.0585 75.4845 39.0799 76.3505 36.7724C76.383 36.5638 76.4502 36.7165 76.4502 36.7165C76.3705 38.1557 76.9214 39.7267 79.3872 39.7267C81.8534 39.7267 82.9869 37.8972 82.9869 37.8972C82.9869 37.8972 83.5764 39.2102 84.7892 39.2102C86.0025 39.2102 87.243 37.7181 87.243 37.7181C87.243 37.7181 87.5807 38.4806 88.4959 38.4806C89.6695 38.4806 90.7233 36.877 90.7233 36.877C90.7233 36.877 90.8827 37.6584 91.9566 37.6584C93.0304 37.6584 93.6871 36.817 93.6871 36.817C93.6871 36.817 93.4207 39.2831 93.4407 39.2831C92.123 39.2691 91.5959 39.3662 90.9498 39.4851L90.9498 39.4852ZM81.1472 33.7903C80.9084 35.3017 79.1186 35.3017 79.1186 35.3017C79.1583 33.5912 80.2321 33.1143 80.63 33.1143C81.0282 33.1143 81.1075 33.3127 81.1472 33.7903ZM86.9146 20.3262C86.6758 21.8376 84.886 21.8376 84.886 21.8376C84.9257 20.1271 85.9995 19.6499 86.3974 19.6499C86.7952 19.6499 86.8749 19.849 86.9146 20.3262ZM71.1736 36.7239C71.1264 37.2684 71.6546 38.0713 72.1666 38.0868C72.4859 38.1518 73.5922 37.1724 73.6583 35.6338C73.6111 33.2451 72.1991 33.1004 72.0389 33.1004C71.8783 33.1004 71.59 33.2451 71.59 33.2451C71.59 33.2451 71.2208 36.1794 71.1736 36.7239ZM72.1031 29.0767L71.7177 31.9631C71.7177 31.9631 72.7122 31.6419 73.4006 31.1617C73.9494 30.7782 73.9907 30.2016 74.0249 29.7233V29.7233C74.0337 29.6013 74.0419 29.4857 74.0581 29.3813C74.1378 28.8678 73.8185 27.9221 73.0961 27.9069C72.374 27.8922 72.1031 29.0767 72.1031 29.0767Z" fill="#1B1B1B" fill-opacity="0.55"/>
</g>
<defs>
<clipPath id="clip0_2643_7701">
<rect width="38.3493" height="39.5307" fill="white" transform="translate(64.1582 8.23462)"/>
</clipPath>
</defs>
</svg>
