<svg width="188" height="56" viewBox="0 0 188 56" fill="none" xmlns="http://www.w3.org/2000/svg">
<g clip-path="url(#clip0_17529_133190)">
<g clip-path="url(#clip1_17529_133190)">
<path d="M137.944 33.0374C137.595 33.0387 137.25 33.1088 136.928 33.2438C136.606 33.3787 136.314 33.5757 136.068 33.8236C135.822 34.0716 135.628 34.3655 135.496 34.6886C135.364 35.0117 135.297 35.3577 135.299 35.7066C135.297 36.0556 135.364 36.4016 135.496 36.7247C135.628 37.0478 135.822 37.3417 136.068 37.5897C136.314 37.8376 136.606 38.0346 136.928 38.1695C137.25 38.3045 137.595 38.3746 137.944 38.3759C139.402 38.3759 140.588 37.1802 140.588 35.7066C140.59 35.3577 140.523 35.0117 140.391 34.6886C140.26 34.3655 140.065 34.0716 139.82 33.8236C139.574 33.5757 139.282 33.3787 138.96 33.2438C138.638 33.1088 138.293 33.0387 137.944 33.0374ZM129.242 30.976C129.242 28.9567 127.532 27.322 125.424 27.322C123.315 27.322 121.606 28.9592 121.606 30.976C121.606 32.9928 123.318 34.6276 125.426 34.6276C127.535 34.6276 129.242 32.9928 129.242 30.976ZM129.256 23.8738H133.469V38.0757H129.256V37.1678C128.028 38.0155 126.571 38.4689 125.079 38.4676C120.978 38.4676 117.654 35.1138 117.654 30.976C117.654 26.8382 120.978 23.4844 125.079 23.4844C126.629 23.4844 128.066 23.9631 129.256 24.7842V23.8738ZM95.5391 25.7244V23.8763H91.2252V38.0757H95.5491V31.4448C95.5491 29.2073 97.9504 28.0066 99.6174 28.0066H99.667V23.8763C97.9553 23.8763 96.3851 24.6155 95.5391 25.7244ZM84.7929 30.976C84.7929 28.9567 83.0837 27.322 80.9751 27.322C78.8665 27.322 77.1573 28.9592 77.1573 30.976C77.1573 32.9928 78.869 34.6276 80.9776 34.6276C83.0861 34.6276 84.7929 32.9928 84.7929 30.976ZM84.8077 23.8738H89.0224V38.0757H84.8077V37.1678C83.617 37.9864 82.1807 38.4676 80.6303 38.4676C76.5297 38.4676 73.2056 35.1138 73.2056 30.976C73.2056 26.8382 76.5297 23.4844 80.6303 23.4844C82.1807 23.4844 83.617 23.9631 84.8077 24.7842V23.8738ZM110.168 23.4943C108.486 23.4943 106.893 24.0202 105.827 25.4739V23.8763H101.632V38.0757H105.879V30.6138C105.879 28.4556 107.312 27.3964 109.041 27.3964C110.892 27.3964 111.959 28.5127 111.959 30.5841V38.0757H116.166V29.046C116.166 25.7418 113.561 23.4943 110.168 23.4943ZM67.0684 38.0757H71.4791V17.5481H67.0684V38.0757ZM47.6943 38.0807H52.3654V17.5431H47.6968L47.6943 38.0807ZM64.0321 17.5431C64.0321 21.9885 62.3154 26.1263 59.2543 29.1998L65.709 38.0807H59.9414L52.9286 28.4308L54.7395 27.0615C56.2137 25.9527 57.4081 24.5146 58.2274 22.8618C59.0466 21.2091 59.4679 19.3877 59.4577 17.5431H64.0271H64.0321Z" fill="#1B1B1B" fill-opacity="0.55"/>
</g>
</g>
<defs>
<clipPath id="clip0_17529_133190">
<rect width="92.8954" height="20.9788" fill="white" transform="translate(47.6953 17.5106)"/>
</clipPath>
<clipPath id="clip1_17529_133190">
<rect width="92.8954" height="20.9788" fill="white" transform="translate(47.6953 17.5106)"/>
</clipPath>
</defs>
</svg>
