<svg width="32" height="32" viewBox="0 0 32 32" fill="none" xmlns="http://www.w3.org/2000/svg">
<rect width="32" height="32" rx="16" fill="#FAF4EE" fill-opacity="0.16"/>
<path d="M19.2004 13.2004C20.4735 13.2004 21.6944 13.7062 22.5946 14.6063C23.4948 15.5065 24.0005 16.7274 24.0005 18.0005V23.6005H20.8004V18.0005C20.8004 17.5761 20.6319 17.1692 20.3318 16.8691C20.0318 16.569 19.6248 16.4005 19.2004 16.4005C18.7761 16.4005 18.3691 16.569 18.0691 16.8691C17.769 17.1692 17.6004 17.5761 17.6004 18.0005V23.6005H14.4004V18.0005C14.4004 16.7274 14.9061 15.5065 15.8063 14.6063C16.7065 13.7062 17.9274 13.2004 19.2004 13.2004Z" fill="white"/>
<path d="M11.2 14H8V23.6001H11.2V14Z" fill="white"/>
<path d="M9.60001 11.6004C10.4837 11.6004 11.2 10.8841 11.2 10.0004C11.2 9.11674 10.4837 8.40039 9.60001 8.40039C8.71635 8.40039 8 9.11674 8 10.0004C8 10.8841 8.71635 11.6004 9.60001 11.6004Z" fill="white"/>
</svg>
