<svg width="111" height="40" viewBox="0 0 111 40" fill="none" xmlns="http://www.w3.org/2000/svg">
<g clip-path="url(#clip0_251_30029)">
<path fill-rule="evenodd" clip-rule="evenodd" d="M40.9023 14.2453H46.7224V10.3693H31.0791V14.2453H36.8992V29.7708H40.9039V14.2453H40.9023ZM46.9643 16.543V24.8421C46.9597 25.5073 47.0618 26.169 47.2666 26.8019C47.4604 27.4006 47.7591 27.9602 48.1487 28.4546C48.5557 28.9594 49.0793 29.3579 49.6743 29.6158C50.3498 29.9075 51.0797 30.0518 51.8154 30.039C53.403 30.039 54.6329 29.4018 55.5053 28.1274H55.5409V29.7708H59.3518V16.543H55.4928V23.9103C55.5184 24.5739 55.3019 25.2241 54.8836 25.7398C54.4789 26.2188 53.8913 26.4592 53.1161 26.4592C52.3409 26.4592 51.7658 26.2298 51.3859 25.7692C51.0061 25.3088 50.8185 24.6933 50.8185 23.9181V16.543H46.9643ZM70.0649 16.3988C69.365 16.3919 68.6752 16.5655 68.0619 16.9026C67.4336 17.2631 66.9358 17.8135 66.6401 18.4747H66.6044V16.543H62.9332V29.7708H66.7192V23.9708C66.7192 22.7698 67.0055 21.8447 67.5781 21.1957C68.1507 20.5465 68.913 20.2214 69.8649 20.2205C70.2805 20.2142 70.6957 20.2469 71.1052 20.3181V16.5305C70.7656 16.4419 70.4159 16.3975 70.0649 16.3988ZM75.3269 14.3166C75.6468 14.3232 75.9647 14.2643 76.2611 14.1439C76.5575 14.0233 76.8263 13.8437 77.0509 13.6159C77.275 13.3931 77.4529 13.1282 77.5742 12.8364C77.6956 12.5447 77.7581 12.2318 77.7581 11.9159C77.7581 11.5999 77.6956 11.287 77.5742 10.9953C77.4529 10.7034 77.275 10.4386 77.0509 10.2159C76.8261 9.98825 76.5573 9.80878 76.2609 9.68834C75.9645 9.56789 75.6467 9.50887 75.3269 9.51509C75.015 9.51198 74.7057 9.57323 74.4184 9.69483C74.1312 9.81643 73.872 9.99589 73.6571 10.222C73.2083 10.6727 72.9562 11.2829 72.9562 11.9189C72.9562 12.555 73.2083 13.1651 73.6571 13.6159C73.8728 13.8405 74.1322 14.0186 74.4194 14.1392C74.7066 14.2597 75.0154 14.32 75.3269 14.3166ZM77.299 16.543V29.7708H73.423V16.543H77.299ZM93.2681 29.7661V21.5398C93.2726 20.87 93.1766 20.2031 92.9846 19.5615C92.8015 18.9596 92.5143 18.3944 92.1357 17.8918C91.7419 17.3806 91.2264 16.9752 90.637 16.7119C89.9579 16.4103 89.2201 16.2622 88.4772 16.2778C88.252 16.2814 88.0274 16.3037 87.8058 16.3445C87.4728 16.4063 87.144 16.4891 86.8214 16.5926C86.4002 16.7279 86.0069 16.938 85.6602 17.2127C85.2857 17.4978 84.9729 17.8559 84.7408 18.2654H84.7035V16.543H80.8741V29.7708H84.7206V22.4236C84.6988 21.7607 84.9155 21.1121 85.3315 20.5957C85.7397 20.1047 86.3305 19.8587 87.1035 19.8576C87.8767 19.8566 88.4513 20.0908 88.8276 20.56C89.2104 21.0282 89.4015 21.6484 89.4024 22.4205V29.7708L93.2681 29.7661ZM106.201 16.543V18.143H106.153C105.849 17.7737 105.493 17.4519 105.094 17.1879C104.739 16.9463 104.35 16.7587 103.939 16.6313C103.618 16.5318 103.291 16.4551 102.96 16.4019C102.695 16.3615 102.428 16.3413 102.161 16.3414C101.266 16.3335 100.383 16.5319 99.5783 16.9213C98.8139 17.2853 98.1374 17.8092 97.5934 18.4576C97.061 19.1024 96.6414 19.8326 96.3534 20.6173C96.0557 21.4104 95.9037 22.2509 95.9054 23.098C95.8903 24.2708 96.1623 25.4293 96.6974 26.4731C97.2121 27.4738 97.9952 28.3114 98.9596 28.8917C99.965 29.4959 101.12 29.8063 102.293 29.7879C103.929 29.7879 105.201 29.1993 106.104 28.0219H106.152V29.5336C106.162 30.0738 106.064 30.6107 105.862 31.1119C105.691 31.5361 105.419 31.912 105.069 32.2064C104.734 32.4818 104.35 32.6921 103.937 32.8266C103.504 32.9666 103.05 33.0362 102.595 33.0328C101.741 33.0328 101.049 32.7971 100.521 32.3258C100.004 31.8759 99.6565 31.2634 99.5348 30.5894L95.9685 31.6173C96.0868 32.2495 96.3285 32.8519 96.6814 33.3894C97.4894 34.6311 98.7081 35.5496 100.123 35.9847C100.976 36.2566 101.865 36.3911 102.76 36.3831C103.746 36.3944 104.729 36.2371 105.663 35.9181C106.511 35.6259 107.291 35.1649 107.956 34.5631C108.634 33.9278 109.154 33.1424 109.474 32.27C109.851 31.2525 110.036 30.1737 110.018 29.0886V16.543H106.201ZM105.329 25.4715C104.715 26.0673 103.893 26.4003 103.038 26.4003C102.182 26.4003 101.36 26.0673 100.745 25.4715C100.132 24.8515 99.8263 24.055 99.8263 23.0825C99.8112 22.6438 99.8859 22.2069 100.046 21.7982C100.206 21.3896 100.448 21.0179 100.756 20.7057C101.368 20.1064 102.189 19.7708 103.045 19.7708C103.901 19.7708 104.723 20.1064 105.335 20.7057C105.642 21.0168 105.884 21.3876 106.044 21.7951C106.204 22.2027 106.279 22.6387 106.265 23.0763C106.265 24.052 105.956 24.8504 105.335 25.4715H105.329Z" fill="#1B1B1B" opacity="0.55"/>
<path d="M18.9239 10.7119L0.0263565 40.0032V33.5986C0.0263565 31.6047 -0.0790694 29.504 0.131782 27.5102C0.220893 26.2255 0.578458 24.9738 1.18139 23.8358C3.49146 20.056 5.90539 16.3816 8.32089 12.6017C8.67614 11.9982 9.18182 11.4971 9.78866 11.1473C10.3954 10.7976 11.0825 10.6112 11.7829 10.6064C14.0945 10.7119 16.4045 10.7119 18.9239 10.7119Z" fill="#1B1B1B" opacity="0.55"/>
<path d="M25.7477 0.00292969C23.4392 2.10215 21.3384 4.20291 19.2361 6.09282C17.2934 7.85685 14.8208 8.92715 12.2051 9.13622C8.216 9.34706 4.22688 9.13622 0.132324 9.13622V0.00292969H25.7477Z" fill="#1B1B1B" opacity="0.55"/>
</g>
<defs>
<clipPath id="clip0_251_30029">
<rect width="110.02" height="40" fill="white" transform="translate(0 0.00292969)"/>
</clipPath>
</defs>
</svg>
