<svg width="167" height="57" viewBox="0 0 167 57" fill="none" xmlns="http://www.w3.org/2000/svg">
<g clip-path="url(#clip0_1409_500)">
<path d="M61.0607 27.8839C61.0607 33.1159 64.4207 36.7639 69.0767 36.7639C73.7327 36.7639 77.0927 33.1159 77.0927 27.8839C77.0927 22.6519 73.7327 19.0039 69.0767 19.0039C64.4207 19.0039 61.0607 22.6519 61.0607 27.8839ZM74.0207 27.8839C74.0207 31.6279 71.9807 34.0519 69.0767 34.0519C66.1727 34.0519 64.1327 31.6279 64.1327 27.8839C64.1327 24.1399 66.1727 21.7159 69.0767 21.7159C71.9807 21.7159 74.0207 24.1399 74.0207 27.8839Z" fill="#1B1B1B" fill-opacity="0.55"/>
<path d="M85.7438 36.764C89.2718 36.764 91.2878 33.788 91.2878 30.212C91.2878 26.636 89.2718 23.66 85.7438 23.66C84.1118 23.66 82.9118 24.308 82.1198 25.244V23.9H79.2397V40.82H82.1198V35.18C82.9118 36.116 84.1118 36.764 85.7438 36.764ZM82.0477 29.852C82.0477 27.476 83.3917 26.18 85.1677 26.18C87.2557 26.18 88.3837 27.812 88.3837 30.212C88.3837 32.612 87.2557 34.244 85.1677 34.244C83.3917 34.244 82.0477 32.924 82.0477 30.596V29.852Z" fill="#1B1B1B" fill-opacity="0.55"/>
<path d="M99.0817 36.764C101.602 36.764 103.594 35.444 104.482 33.236L102.01 32.3C101.626 33.596 100.498 34.316 99.0817 34.316C97.2337 34.316 95.9377 32.996 95.7217 30.836H104.554V29.876C104.554 26.42 102.61 23.66 98.9617 23.66C95.3137 23.66 92.9617 26.516 92.9617 30.212C92.9617 34.1 95.4817 36.764 99.0817 36.764ZM98.9377 26.084C100.762 26.084 101.626 27.284 101.65 28.676H95.8657C96.2977 26.972 97.4497 26.084 98.9377 26.084Z" fill="#1B1B1B" fill-opacity="0.55"/>
<path d="M106.715 36.5H109.595V29.108C109.595 27.308 110.915 26.348 112.211 26.348C113.795 26.348 114.419 27.476 114.419 29.036V36.5H117.299V28.196C117.299 25.484 115.715 23.66 113.075 23.66C111.443 23.66 110.315 24.404 109.595 25.244V23.9H106.715V36.5Z" fill="#1B1B1B" fill-opacity="0.55"/>
<path d="M125.734 19.2682L119.206 36.5002H122.254L123.718 32.5642H131.158L132.646 36.5002H135.742L129.214 19.2682H125.734ZM127.414 22.6762L130.15 29.8762H124.726L127.414 22.6762Z" fill="#1B1B1B" fill-opacity="0.55"/>
<path d="M140.686 19.3182H137.614V36.5502H140.686V19.3182Z" fill="#1B1B1B" fill-opacity="0.55"/>
<path d="M54.0227 25.597C54.7487 23.418 54.4987 21.031 53.3377 19.049C51.5917 16.009 48.0817 14.445 44.6537 15.181C43.1287 13.463 40.9377 12.486 38.6407 12.5C35.1367 12.492 32.0277 14.748 30.9497 18.082C28.6987 18.543 26.7557 19.952 25.6187 21.949C23.8597 24.981 24.2607 28.803 26.6107 31.403C25.8847 33.582 26.1347 35.969 27.2957 37.951C29.0417 40.991 32.5517 42.555 35.9797 41.819C37.5037 43.537 39.6957 44.514 41.9927 44.499C45.4987 44.508 48.6087 42.25 49.6867 38.913C51.9377 38.452 53.8807 37.043 55.0177 35.046C56.7747 32.014 56.3727 28.195 54.0237 25.595L54.0227 25.597ZM41.9947 42.408C40.5917 42.41 39.2327 41.919 38.1557 41.02C38.2047 40.994 38.2897 40.947 38.3447 40.913L44.7167 37.233C45.0427 37.048 45.2427 36.701 45.2407 36.326V27.343L47.9337 28.898C47.9627 28.912 47.9817 28.94 47.9857 28.972V36.411C47.9817 39.719 45.3027 42.401 41.9947 42.408ZM29.1107 36.905C28.4077 35.691 28.1547 34.268 28.3957 32.887C28.4427 32.915 28.5257 32.966 28.5847 33L34.9567 36.68C35.2797 36.869 35.6797 36.869 36.0037 36.68L43.7827 32.188V35.298C43.7847 35.33 43.7697 35.361 43.7447 35.381L37.3037 39.1C34.4347 40.752 30.7707 39.77 29.1117 36.905H29.1107ZM27.4337 22.996C28.1337 21.78 29.2387 20.85 30.5547 20.367C30.5547 20.422 30.5517 20.519 30.5517 20.587V27.948C30.5497 28.322 30.7497 28.669 31.0747 28.854L38.8537 33.345L36.1607 34.9C36.1337 34.918 36.0997 34.921 36.0697 34.908L29.6277 31.186C26.7647 29.528 25.7827 25.865 27.4327 22.997L27.4337 22.996ZM49.5597 28.145L41.7807 23.653L44.4737 22.099C44.5007 22.081 44.5347 22.078 44.5647 22.091L51.0067 25.81C53.8747 27.467 54.8577 31.136 53.2007 34.004C52.4997 35.218 51.3957 36.148 50.0807 36.632V29.051C50.0837 28.677 49.8847 28.331 49.5607 28.145H49.5597ZM52.2397 24.111C52.1927 24.082 52.1097 24.032 52.0507 23.998L45.6787 20.318C45.3557 20.129 44.9557 20.129 44.6317 20.318L36.8527 24.81V21.7C36.8507 21.668 36.8657 21.637 36.8907 21.617L43.3317 17.901C46.2007 16.246 49.8687 17.231 51.5227 20.101C52.2217 21.313 52.4747 22.732 52.2377 24.111H52.2397ZM35.3887 29.654L32.6947 28.099C32.6657 28.085 32.6467 28.057 32.6427 28.025V20.586C32.6447 17.274 35.3317 14.59 38.6437 14.592C40.0447 14.592 41.4007 15.084 42.4777 15.98C42.4287 16.006 42.3447 16.053 42.2887 16.087L35.9167 19.767C35.5907 19.952 35.3907 20.298 35.3927 20.673L35.3887 29.652V29.654ZM36.8517 26.5L40.3167 24.499L43.7817 26.499V30.5L40.3167 32.5L36.8517 30.5V26.5Z" fill="#1B1B1B" fill-opacity="0.55"/>
</g>
<defs>
<clipPath id="clip0_1409_500">
<rect width="118" height="32" fill="white" transform="translate(24.3167 12.5)"/>
</clipPath>
</defs>
</svg>
