<svg width="213" height="56" viewBox="0 0 213 56" fill="none" xmlns="http://www.w3.org/2000/svg">
<g clip-path="url(#clip0_2249_124)">
<mask id="mask0_2249_124" style="mask-type:luminance" maskUnits="userSpaceOnUse" x="40" y="16" width="133" height="24">
<path d="M172.203 16H40.6475V40H172.203V16Z" fill="white"/>
</mask>
<g mask="url(#mask0_2249_124)">
<path d="M67.1989 22.7153C62.3922 22.7153 58.6727 26.3942 58.6727 31.3577C58.6727 36.3212 62.335 40 67.1989 40C72.0629 40 75.7824 36.2628 75.7824 31.3577C75.7824 26.4526 72.1201 22.7153 67.1989 22.7153ZM67.2561 36.3796C64.5094 36.3796 62.5639 34.219 62.5639 31.2993C62.5639 28.3796 64.5094 26.219 67.2561 26.219C70.0028 26.219 72.0056 28.3796 72.0056 31.2993C72.0056 34.219 69.9456 36.3796 67.2561 36.3796ZM76.8124 26.4526H79.1585V39.6496H82.9924V23.0073H76.8124V26.4526ZM49.1165 26.2774C51.1193 26.2774 52.7215 27.5036 53.2937 29.3723H57.2993C56.5554 25.4015 53.351 22.6569 49.1165 22.6569C44.367 22.7153 40.6475 26.3942 40.6475 31.3577C40.6475 36.3212 44.3097 40 49.1737 40C53.2937 40 56.5554 37.3139 57.2993 33.2847H53.2937C52.7215 35.1533 51.1193 36.438 49.1737 36.438C46.427 36.438 44.4814 34.2774 44.4814 31.3577C44.4814 28.438 46.3698 26.2774 49.1165 26.2774ZM148.971 29.7226L146.167 29.3139C144.85 29.1387 143.878 28.6715 143.878 27.6204C143.878 26.4526 145.137 25.8686 146.796 25.8686C148.627 25.8686 149.829 26.6861 150.058 27.9708H153.72C153.319 24.6423 150.802 22.6569 146.91 22.6569C142.905 22.6569 140.215 24.7591 140.215 27.7372C140.215 30.5401 141.932 32.2336 145.48 32.7007L148.284 33.1095C149.657 33.2847 150.401 33.8686 150.401 34.8613C150.401 36.2044 149.085 36.7299 147.254 36.7299C145.022 36.7299 143.763 35.7956 143.534 34.3942H139.815C140.158 37.6642 142.676 39.9416 147.197 39.9416C151.317 39.9416 154.121 38.0146 154.121 34.6861C154.121 31.7664 152.118 30.2482 148.971 29.7226ZM81.1041 16.1752C79.7307 16.1752 78.6435 17.2263 78.6435 18.6277C78.6435 20.0292 79.6735 21.0803 81.1041 21.0803C82.4774 21.0803 83.5647 20.0292 83.5647 18.6277C83.5647 17.2263 82.4774 16.1752 81.1041 16.1752ZM136.839 28.7299C136.839 25.1095 134.665 22.7153 130.144 22.7153C125.852 22.7153 123.449 24.9343 122.934 28.3212H126.711C126.882 26.9781 127.912 25.927 130.087 25.927C132.033 25.927 132.948 26.8029 132.948 27.854C132.948 29.2555 131.231 29.6058 129.057 29.8394C126.139 30.1898 122.534 31.1825 122.534 35.0365C122.534 38.0146 124.708 39.9416 128.199 39.9416C130.945 39.9416 132.605 38.7737 133.463 36.9635C133.578 38.5985 134.779 39.6496 136.496 39.6496H138.728V36.2044H136.839V28.7299ZM133.063 32.8759C133.063 35.0949 131.174 36.7299 128.828 36.7299C127.397 36.7299 126.196 36.146 126.196 34.8029C126.196 33.1679 128.141 32.7007 129.915 32.5255C131.632 32.3504 132.548 32 133.063 31.2409V32.8759ZM112.92 22.7153C110.803 22.7153 109.029 23.5912 107.77 25.1095V16H103.993V39.6496H107.713V37.4891C108.972 39.0657 110.803 40 112.92 40C117.498 40 120.931 36.3212 120.931 31.3577C120.931 26.3942 117.441 22.7153 112.92 22.7153ZM112.348 36.3796C109.601 36.3796 107.656 34.219 107.656 31.2993C107.656 28.3796 109.658 26.219 112.405 26.219C115.152 26.219 117.097 28.3796 117.097 31.2993C117.097 34.2774 115.095 36.3796 112.348 36.3796ZM94.8948 22.7153C92.4342 22.7153 90.832 23.7664 89.8592 25.1679V23.0073H86.0825V39.6496H89.8592V30.5985C89.8592 28.0292 91.4614 26.2774 93.8076 26.2774C95.9821 26.2774 97.3554 27.854 97.3554 30.1314V39.6496H101.132V29.8394C101.132 25.635 99.0149 22.7153 94.8948 22.7153ZM172.203 30.8321C172.203 26.0438 168.77 22.7153 164.192 22.7153C159.328 22.7153 155.723 26.4526 155.723 31.3577C155.723 36.5547 159.557 40 164.249 40C168.197 40 171.287 37.6058 172.089 34.219H168.14C167.568 35.6788 166.195 36.5547 164.306 36.5547C161.846 36.5547 160.015 35.0365 159.614 32.292H172.203V30.8321ZM159.843 29.5474C160.472 27.2117 162.132 26.1022 164.135 26.1022C166.309 26.1022 167.911 27.3285 168.312 29.5474H159.843Z" fill="#1B1B1B" fill-opacity="0.55"/>
</g>
</g>
<defs>
<clipPath id="clip0_2249_124">
<rect width="131.556" height="24" fill="white" transform="translate(40.6475 16)"/>
</clipPath>
</defs>
</svg>
