<svg width="50" height="40" viewBox="0 0 50 40" fill="none" xmlns="http://www.w3.org/2000/svg">
<g clip-path="url(#clip0_2089_746)">
<path d="M16.7715 14.6413C16.7715 15.4857 17.4716 16.1549 18.663 16.1592C19.8544 16.1634 20.5549 15.4999 20.5549 14.6494C20.5549 13.7989 19.8544 13.1338 18.662 13.1338C17.4696 13.1338 16.7715 13.797 16.7715 14.6413ZM6.27053 14.287C6.02546 14.287 5.89163 14.4662 5.89163 14.7298C5.89163 15.0573 6.41694 15.2573 6.41694 15.9554V25.7642C6.41694 26.8 5.81105 26.9155 5.80957 27.2512C5.80886 27.4225 5.94482 27.5641 6.11607 27.5641H10.6202C10.8018 27.5641 10.9423 27.4162 10.9476 27.2347C10.9556 26.9667 10.328 26.3799 10.3298 25.8691L10.3628 16.8142C10.3663 15.8504 10.5872 15.5206 11.2051 15.5206C11.9609 15.5206 12.698 16.4846 12.7227 18.5852C12.7536 21.2212 11.1066 21.7449 10.8036 21.8802C10.7199 21.9177 10.6492 21.9944 10.6492 22.0862C10.6492 22.5993 11.6499 23.1159 12.6117 23.1159C14.4033 23.1159 16.578 21.6043 16.578 18.5152C16.578 16.7585 15.8408 14.287 12.8176 14.287H6.27053ZM36.9187 18.3278C36.9174 18.9475 37.4172 19.4496 38.0369 19.448C38.7104 19.4462 39.1518 18.8618 39.2726 18.4573C39.4813 17.7579 39.9501 17.5538 40.3023 17.5555C40.8359 17.5581 41.2766 17.9876 41.2805 18.5212C41.2877 19.4994 40.2363 19.7065 38.8876 20.0143C36.9063 20.4665 36.2104 21.3714 36.2104 22.7965C36.2104 24.1248 37.3803 25.2266 39.1225 25.2328C39.9272 25.2357 40.7087 24.9659 41.33 24.4545C41.4135 24.3857 41.5375 24.393 41.6103 24.473C42.0511 24.9567 42.6775 25.2203 43.3319 25.2163C44.7302 25.2078 45.2038 24.3721 45.2038 24.0446C45.2038 23.5504 44.3366 24.3187 44.3366 22.597V18.5542C44.3366 17.0632 42.6892 16.3649 40.7801 16.3649C38.8711 16.3649 36.9219 16.8985 36.9187 18.3278ZM29.7293 16.5173C29.373 16.5173 29.2679 16.7255 29.2679 17.1126V19.4295C29.2679 19.7281 29.3691 19.9009 29.6368 19.9009C30.1125 19.9009 30.2523 18.764 30.9609 18.2143C31.317 17.9381 31.7414 17.7852 32.7814 17.7654C32.8813 17.7636 32.9432 17.8754 32.8884 17.9589L28.6751 24.3761C28.4648 24.6963 28.6914 25.1229 29.0745 25.1218L30.582 25.1174C33.1439 25.1099 34.1735 27.5887 36.2329 27.5887C37.969 27.5887 39.2015 26.1165 39.2046 25.7726C39.2062 25.5956 39.0586 25.4667 38.8816 25.4717C38.4514 25.4839 38.4345 25.7107 37.586 25.7107C35.6831 25.7107 34.987 24.0941 32.594 24.0941L36.1549 18.5767C36.2704 18.3977 37.0196 17.3557 37.0197 17.0756C37.0197 16.7674 36.77 16.5173 36.4618 16.5173L29.7293 16.5173ZM29.5483 25.7107C27.6516 25.7107 26.9493 24.0941 24.5562 24.0941L28.1168 18.5852C28.2324 18.4063 28.98 17.3638 28.9799 17.0837C28.9799 16.7762 28.7311 16.5258 28.4237 16.5258H21.6896C21.3333 16.5258 21.2282 16.7315 21.2282 17.1207V19.4295C21.2282 19.7281 21.331 19.9009 21.5966 19.9009C22.0724 19.9009 22.2151 18.7646 22.9232 18.2143C23.2777 17.9388 23.7037 17.7833 24.7417 17.7654C24.8416 17.7637 24.9035 17.8754 24.8487 17.9589L20.6723 24.3206C20.4834 24.0805 20.4105 23.7797 20.4105 23.4743V17.1681C20.4105 16.7357 20.2707 16.5278 19.937 16.5278L17.0547 16.5278C16.8621 16.5278 16.687 16.5606 16.687 16.8078C16.687 17.1373 17.2268 17.3104 17.2268 18.1733V23.3464C17.2268 24.3431 16.609 24.1845 16.609 24.7385C16.609 25.0145 16.924 25.1218 16.924 25.1218H20.6783C20.7316 25.1218 20.7836 25.1052 20.8308 25.0804C20.8901 25.106 20.9537 25.1218 21.0182 25.1218H22.5258C25.0836 25.1218 26.1234 27.5931 28.1787 27.5931C29.9045 27.5931 31.1484 26.1163 31.1484 25.7766C31.1484 25.5994 31.0037 25.4738 30.8332 25.4738C30.411 25.4738 30.3947 25.7107 29.5483 25.7107ZM41.344 20.5613C41.374 20.5668 41.3879 20.5904 41.3879 20.6406V22.5206C41.3879 23.0783 40.9683 23.5432 40.4107 23.5432C39.853 23.5432 39.4335 23.079 39.4335 22.5206C39.4335 21.4003 40.875 20.694 41.046 20.6406C41.1991 20.5928 41.2942 20.5523 41.344 20.5613ZM12.5167 26.485C12.2614 26.485 12.0843 26.6087 12.0843 26.8393C12.0843 27.2512 12.6076 27.251 12.6076 28.153V32.9081C11.966 33.0195 11.3165 33.0859 10.6653 33.0875C8.0107 33.094 7.37035 31.8004 7.03878 31.8004C6.36947 31.8004 6.33258 35.3939 9.48554 35.3939C10.3731 35.3939 11.4791 35.0932 12.6076 34.7101V38.0671C12.6076 38.5779 11.9898 39.165 11.9898 39.4327C11.9898 39.8199 12.2917 39.7887 12.3152 39.7887H16.825C17.0012 39.7887 17.1328 39.6254 17.1319 39.4492C17.1302 39.1135 16.5141 38.996 16.5141 37.9621V33.3635C16.885 33.2525 17.268 33.1766 17.6552 33.172C18.6313 33.1604 18.9383 33.7685 18.9383 34.1603V38.1331C18.9383 39.0372 18.415 39.037 18.415 39.4448C18.415 39.6754 18.5921 39.7991 18.8454 39.7991H22.8673C22.9684 39.7991 23.3786 39.7995 23.3761 39.3563C23.3745 39.0721 22.8528 38.7632 22.8532 38.1206L22.8592 28.217C22.8595 27.7062 23.4771 27.1215 23.4771 26.8538C23.4771 26.4733 23.2291 26.4954 23.1517 26.4954H18.6479C18.4712 26.4954 18.341 26.6606 18.341 26.8373C18.341 27.1642 18.9464 27.2881 18.9464 28.3219V32.1958C18.5608 31.956 18.1172 31.8085 17.6632 31.8189C17.2767 31.8278 16.8953 31.9098 16.5225 32.0124V28.1635C16.5225 27.5292 17.0474 27.2243 17.0474 26.9278C17.0474 26.4788 16.6273 26.485 16.539 26.485H12.5167ZM35.9888 29.013C35.8854 29.0229 35.771 29.0738 35.6666 29.1521L32.7054 31.3761C32.3438 31.6477 32.2482 32.3356 33.1873 32.3418V37.5253C33.1873 39.0143 33.9288 39.9825 35.3106 39.9825C36.3815 39.9825 37.0059 39.5563 37.4191 38.8475C37.6793 38.401 37.6643 38.0076 37.3801 38.0076C37.1536 38.0076 37.1741 38.1126 36.8652 38.1126C36.4863 38.1126 36.3009 37.7642 36.3009 37.3874V32.3028H37.5036C37.761 32.3028 37.8825 32.0476 37.8825 31.7654C37.8825 31.4833 37.761 31.1886 37.5036 31.1886H36.3009V29.3351C36.3009 29.0893 36.1611 28.9964 35.9888 29.013ZM23.7819 31.1846C23.586 31.1846 23.4215 31.3401 23.4215 31.5345C23.4215 31.8599 23.8334 31.8705 23.8334 32.7416V37.8117C23.8334 38.551 24.4697 40.0031 26.5992 40.0031C28.3538 40.0031 29.3009 39.0433 29.3009 39.0433C29.3009 39.0433 29.1835 39.7887 29.9352 39.7887H32.448C32.5884 39.7887 32.7034 39.6615 32.7034 39.5292C32.7034 39.1359 32.1596 38.9733 32.1596 38.1186V31.5985C32.1596 31.3617 31.9577 31.1866 31.3213 31.1866H28.85C28.663 31.1866 28.5266 31.354 28.5266 31.5345C28.5266 31.9588 29.017 31.8809 29.017 33.065V37.1179C29.017 37.8634 28.4651 38.2276 27.8473 38.2276C27.2294 38.2276 27.0235 37.5667 27.0235 37.0889V31.8024C27.0235 31.1722 26.3252 31.1846 25.8619 31.1846H23.7819Z" fill="#1B1B1B" opacity="0.5"/>
<path fill-rule="evenodd" clip-rule="evenodd" d="M15.0358 0.00292969L12.5912 6.04318L0 11.4862V12.1246H49.8171V11.4862L37.2259 6.04318L34.7793 0.00292969H15.0358Z" fill="#1B1B1B" opacity="0.5"/>
<path fill-rule="evenodd" clip-rule="evenodd" d="M38.3773 39.8181C38.7283 39.8181 39.0207 39.5256 39.0207 39.1747C39.0207 38.8237 38.7283 38.5312 38.3773 38.5312C38.0263 38.5312 37.7339 38.8237 37.7339 39.1747C37.7339 39.5256 38.0263 39.8181 38.3773 39.8181ZM38.3773 39.6865C38.0848 39.6865 37.8655 39.4525 37.8655 39.1747C37.8655 38.8968 38.0848 38.6629 38.3773 38.6629C38.6698 38.6629 38.8891 38.8968 38.8891 39.1747C38.8891 39.4525 38.6698 39.6865 38.3773 39.6865ZM38.1433 39.4817H38.2749V38.9699H38.3773C38.465 38.9699 38.5382 38.9846 38.5382 39.0577C38.5382 39.1454 38.465 39.16 38.3773 39.16H38.2896L38.4943 39.4817H38.6405L38.4797 39.2624C38.5966 39.2478 38.6551 39.16 38.6551 39.0577C38.6551 38.9407 38.582 38.853 38.4358 38.853H38.1433V39.4817Z" fill="#1B1B1B" opacity="0.5"/>
</g>
<defs>
<clipPath id="clip0_2089_746">
<rect width="49.8171" height="40" fill="white" transform="translate(0 0.00292969)"/>
</clipPath>
</defs>
</svg>
