<svg width="167" height="56" viewBox="0 0 167 56" fill="none" xmlns="http://www.w3.org/2000/svg">
<g clip-path="url(#clip0_2643_7681)">
<path d="M70.0325 28.9648L76.41 11.7781H72.1944L69.2759 19.2365L69.9245 11.7781H65.4926L59.1152 28.9648H63.2227L66.3574 20.6417L65.8169 28.7486L70.0325 28.9648ZM75.0048 28.9648L81.3823 11.7781H77.3829L70.8973 28.9648H75.0048ZM86.5707 27.8839L86.3545 19.2365L92.4077 12.2104L86.5707 27.8839ZM115.972 21.8307L95.4343 27.1272L95.9748 25.5059H91.6511L93.0563 21.3983H96.7315L97.8124 18.2636L94.1372 18.4798L95.4343 15.0209H99.0014L100.19 11.8862H88.6245L84.4089 16.8584L86.4626 11.7781H82.3551L75.9776 28.9648H80.1933L82.8956 21.6145V28.9648H88.3002L68.9516 34.0452C66.9338 34.6216 65.1323 34.8739 63.547 34.8018C61.9616 34.7297 60.7366 34.2974 59.8718 33.5047C57.9262 32.0635 57.2415 29.8656 57.8181 26.9111C58.1783 24.9654 58.971 23.0918 60.1961 21.2902C57.3136 24.3168 55.1877 26.8751 53.8186 28.9648C52.3053 31.1988 51.3325 33.3966 50.9001 35.5585C50.4678 37.7203 50.7199 39.4858 51.6568 40.855C54.1789 45.0347 59.6916 45.3228 68.195 41.7198L115.972 21.8307Z" fill="#1B1B1B" fill-opacity="0.55"/>
</g>
<defs>
<clipPath id="clip0_2643_7681">
<rect width="65.2767" height="32.4438" fill="white" transform="translate(50.6953 11.7781)"/>
</clipPath>
</defs>
</svg>
