<svg width="167" height="56" viewBox="0 0 167 56" fill="none" xmlns="http://www.w3.org/2000/svg">
<g clip-path="url(#clip0_2643_7665)">
<path d="M121.625 24.9989C122.758 24.9989 123.677 24.0802 123.677 22.947C123.677 21.8137 122.758 20.895 121.625 20.895C120.492 20.895 119.573 21.8137 119.573 22.947C119.573 24.0802 120.492 24.9989 121.625 24.9989Z" fill="#1B1B1B" fill-opacity="0.55"/>
<path d="M92.3177 31.6969C93.3244 31.6969 93.9051 30.9419 93.8664 30.2063C93.847 29.8192 93.8083 29.5675 93.7696 29.3739C93.1501 26.7025 90.982 24.728 88.4074 24.728C85.3489 24.728 82.8711 27.4962 82.8711 30.9032C82.8711 34.3102 85.3489 37.0784 88.4074 37.0784C90.3239 37.0784 91.6983 36.3815 92.6855 35.2781C93.1695 34.7361 93.0727 33.9037 92.492 33.4972C92.008 33.1681 91.4079 33.2842 90.9627 33.652C90.5368 34.0198 89.7238 34.7554 88.4074 34.7554C86.8588 34.7554 85.5425 33.4197 85.2521 31.6582H92.3177V31.6969ZM88.3881 27.0703C89.7819 27.0703 90.982 28.1544 91.4273 29.6449H85.3489C85.7941 28.135 86.9943 27.0703 88.3881 27.0703Z" fill="#1B1B1B" fill-opacity="0.55"/>
<path d="M82.9868 25.9477C82.9868 25.367 82.5609 24.9024 82.0189 24.8056C80.3348 24.554 78.7474 25.1734 77.8376 26.3155V26.1607C77.8376 25.4444 77.2569 24.9992 76.6761 24.9992C76.0373 24.9992 75.5146 25.5219 75.5146 26.1607V35.646C75.5146 36.2655 75.9792 36.8075 76.5987 36.8462C77.2762 36.885 77.8376 36.3623 77.8376 35.6848V30.7872C77.8376 28.6191 79.4637 26.8382 81.7092 27.0899C81.7866 27.0899 81.864 27.0899 81.9415 27.0899C82.5222 27.0511 82.9868 26.5478 82.9868 25.9477Z" fill="#1B1B1B" fill-opacity="0.55"/>
<path d="M122.787 27.1869C122.787 26.5481 122.264 26.0254 121.625 26.0254C120.987 26.0254 120.464 26.5481 120.464 27.1869C120.464 27.2256 120.464 35.3172 120.464 35.685C120.464 36.3238 120.987 36.8465 121.625 36.8465C122.264 36.8465 122.787 36.3238 122.787 35.685C122.787 35.3365 122.787 27.2449 122.787 27.1869Z" fill="#1B1B1B" fill-opacity="0.55"/>
<path d="M105.518 20.7599C105.518 20.1211 104.996 19.5984 104.357 19.5984C103.718 19.5984 103.195 20.1211 103.195 20.7599V25.9284C102.402 25.1347 101.414 24.7476 100.234 24.7476C97.1751 24.7476 94.6973 27.5158 94.6973 30.9228C94.6973 34.3297 97.1751 37.0979 100.234 37.0979C101.414 37.0979 102.421 36.6914 103.215 35.8977C103.312 36.4398 103.795 36.8463 104.357 36.8463C104.996 36.8463 105.518 36.3236 105.518 35.6848V20.7599ZM100.253 34.7943C98.4721 34.7943 97.0396 33.0715 97.0396 30.9228C97.0396 28.7934 98.4721 27.0512 100.253 27.0512C102.034 27.0512 103.466 28.774 103.466 30.9228C103.466 33.0715 102.015 34.7943 100.253 34.7943Z" fill="#1B1B1B" fill-opacity="0.55"/>
<path d="M117.637 20.7599C117.637 20.1211 117.115 19.5984 116.476 19.5984C115.837 19.5984 115.315 20.1211 115.315 20.7599V25.9284C114.521 25.1347 113.534 24.7476 112.353 24.7476C109.294 24.7476 106.816 27.5158 106.816 30.9228C106.816 34.3297 109.294 37.0979 112.353 37.0979C113.534 37.0979 114.54 36.6914 115.334 35.8977C115.431 36.4398 115.915 36.8463 116.476 36.8463C117.115 36.8463 117.637 36.3236 117.637 35.6848V20.7599ZM112.353 34.7943C110.572 34.7943 109.139 33.0715 109.139 30.9228C109.139 28.7934 110.572 27.0512 112.353 27.0512C114.134 27.0512 115.566 28.774 115.566 30.9228C115.566 33.0715 114.134 34.7943 112.353 34.7943Z" fill="#1B1B1B" fill-opacity="0.55"/>
<path d="M128.671 35.7043V27.0707H129.697C130.239 27.0707 130.723 26.6642 130.762 26.1028C130.801 25.5027 130.317 24.9994 129.736 24.9994H128.671V23.3734C128.671 22.7539 128.207 22.2119 127.587 22.1732C126.91 22.1344 126.348 22.6571 126.348 23.3346V25.0188H125.38C124.838 25.0188 124.354 25.4253 124.316 25.9867C124.277 26.5868 124.761 27.0901 125.342 27.0901H126.329V35.7237C126.329 36.3625 126.852 36.8852 127.49 36.8852C128.168 36.8464 128.671 36.3431 128.671 35.7043Z" fill="#1B1B1B" fill-opacity="0.55"/>
<path fill-rule="evenodd" clip-rule="evenodd" d="M69.0112 28C69.0112 36.9591 61.7484 44.2219 52.7893 44.2219C43.8302 44.2219 36.5674 36.9591 36.5674 28C36.5674 19.0409 43.8302 11.7781 52.7893 11.7781C61.7484 11.7781 69.0112 19.0409 69.0112 28ZM61.2476 25.6385C62.5446 25.6385 63.6093 26.6838 63.6093 28.0002C63.6093 28.9681 63.0285 29.8004 62.2155 30.1682C62.2542 30.4005 62.2736 30.6522 62.2736 30.8845C62.2736 34.5431 58.0342 37.4855 52.8076 37.4855C47.5809 37.4855 43.3415 34.5238 43.3415 30.8845C43.3415 30.6328 43.3609 30.4005 43.3996 30.1682C42.5866 29.8004 42.0058 28.9874 42.0058 28.0195C42.0058 26.7225 43.0512 25.6579 44.3675 25.6579C45.0063 25.6579 45.5871 25.9095 46.0129 26.316C47.6584 25.1352 49.9232 24.3802 52.4398 24.3028L53.6399 18.6503C53.6593 18.5341 53.7174 18.4374 53.8142 18.3793C53.8916 18.3212 54.0077 18.3019 54.1239 18.3212L58.0535 19.1536C58.3246 18.5922 58.9053 18.2051 59.5635 18.2051C60.4926 18.2051 61.2476 18.96 61.2476 19.8892C61.2476 20.8184 60.4926 21.5733 59.5635 21.5733C58.6536 21.5733 57.918 20.8571 57.8793 19.9666L54.3562 19.2117L53.2721 24.2834C55.75 24.3802 57.9761 25.1352 59.6022 26.2967C60.028 25.8901 60.6088 25.6385 61.2476 25.6385ZM49.0715 28.0002C48.1423 28.0002 47.3873 28.7551 47.3873 29.6843C47.3873 30.6135 48.1423 31.3878 49.0715 31.3684C50.0007 31.3684 50.7556 30.6135 50.7556 29.6843C50.7556 28.7551 50.0007 28.0002 49.0715 28.0002ZM52.8076 35.3949C53.4464 35.3949 55.6532 35.3174 56.8146 34.156C56.9695 33.9818 56.9695 33.7107 56.8146 33.5365C56.6404 33.3623 56.3694 33.3623 56.1952 33.5365C55.4789 34.2721 53.911 34.5238 52.8076 34.5238C51.7042 34.5238 50.1555 34.2721 49.4199 33.5365C49.2457 33.3623 48.9747 33.3623 48.8005 33.5365C48.6262 33.7107 48.6262 33.9818 48.8005 34.156C49.9426 35.2981 52.1494 35.3949 52.8076 35.3949ZM54.8208 29.7037C54.8208 30.6328 55.5757 31.3878 56.5049 31.3878C57.4341 31.3878 58.189 30.6135 58.189 29.7037C58.189 28.7745 57.4341 28.0195 56.5049 28.0195C55.5757 28.0195 54.8208 28.7745 54.8208 29.7037Z" fill="#1B1B1B" fill-opacity="0.55"/>
</g>
<defs>
<clipPath id="clip0_2643_7665">
<rect width="94.197" height="32.4438" fill="white" transform="translate(36.5674 11.7781)"/>
</clipPath>
</defs>
</svg>
