<svg width="188" height="56" viewBox="0 0 188 56" fill="none" xmlns="http://www.w3.org/2000/svg">
<g clip-path="url(#clip0_2647_42216)">
<path d="M110.204 24.7394C108.397 23.1591 106.216 22.3868 103.694 22.3868C101.207 22.3868 99.0264 23.1605 97.2184 24.7394C95.4117 26.2852 94.4941 28.437 94.4941 31.1935C94.4941 33.9498 95.4117 36.1004 97.2184 37.6805C99.025 39.2265 101.207 40 103.694 40C106.216 40 108.397 39.2265 110.204 37.6805C112.044 36.1004 112.963 33.9498 112.963 31.1933C112.963 28.4369 112.043 26.2852 110.204 24.7394ZM100.288 34.7221C99.335 33.8152 98.8557 32.6378 98.8557 31.1935C98.8557 29.7479 99.3309 28.5717 100.288 27.6977C101.241 26.7908 102.367 26.3538 103.693 26.3538C105.02 26.3538 106.179 26.7908 107.134 27.6977C108.12 28.5717 108.6 29.7479 108.6 31.1935C108.6 32.639 108.124 33.8152 107.134 34.7221C106.181 35.596 105.021 36.0331 103.693 36.0331C102.367 36.0331 101.243 35.596 100.288 34.7221ZM119.406 39.5283V16.4633H115.113V39.5283H119.406ZM133.265 22.8565V32.0595C133.265 34.2772 132.05 35.7469 129.737 35.7469C127.385 35.7469 126.203 34.2784 126.203 32.0595V22.8565H121.901V32.7656C121.901 36.6043 124.354 39.9984 129.737 39.9984H129.77C135.12 39.9984 137.57 36.5294 137.57 32.7656V22.8565H133.265ZM89.9235 22.8565L85.6302 34.1502L81.3354 22.8565H76.7703L83.6214 39.5284H87.643L94.4927 22.8565H89.9235ZM76.7922 30.7221C76.7922 28.3023 76.0084 26.3195 74.4748 24.7394C72.9413 23.1591 70.9667 22.3868 68.5469 22.3868C66.0602 22.3868 63.9463 23.2278 62.2079 24.874C60.5023 26.5215 59.6529 28.6046 59.6529 31.1935C59.6529 33.7822 60.5037 35.8997 62.1738 37.5459C63.8794 39.1934 65.9236 40 68.3421 40C72.0591 40 74.6824 38.3869 76.2801 35.126L73.0778 33.3109C72.0236 35.3611 70.4887 36.3695 68.4103 36.3695C65.8553 36.3695 64.0487 34.7565 63.7756 32.2019H76.7908V30.7221H76.7922ZM68.4076 25.6132C70.8274 25.6132 72.4306 26.9572 72.8375 29.109H63.7742C64.4229 27.1262 66.1926 25.6132 68.4076 25.6132ZM59.6529 39.5285L53.8916 29.5801C57.5363 28.2692 59.3429 25.984 59.3429 22.656C59.347 18.5887 56.0724 16 50.86 16H40.6729V39.5285H45.171V29.9827H48.9892L54.5074 39.5285H59.6529ZM50.86 19.8983C53.5174 19.8983 54.8475 20.9398 54.8475 22.99C54.8475 25.0402 53.5161 26.0819 50.86 26.0819H45.171V19.8983H50.86ZM144.848 39.9985C142.084 39.9985 139.843 37.7869 139.843 35.0572V18.3526H144.137V22.863H147.818V26.2913H144.137V34.7855C144.137 35.5857 144.793 36.2334 145.606 36.2334H147.818V39.9985H144.848Z" fill="#1B1B1B" fill-opacity="0.55"/>
</g>
<defs>
<clipPath id="clip0_2647_42216">
<rect width="107.145" height="24" fill="white" transform="translate(40.6729 16)"/>
</clipPath>
</defs>
</svg>
