<svg width="193" height="56" viewBox="0 0 193 56" fill="none" xmlns="http://www.w3.org/2000/svg">
<g clip-path="url(#clip0_2647_42212)">
<path d="M78.9471 29.7621C77.9912 29.2338 77.4881 28.8062 77.4881 28.2024C77.4881 27.4226 78.1673 26.9446 79.249 26.9446C80.5068 26.9446 81.6136 27.4729 81.6136 27.4729L82.4941 24.7812C82.4941 24.7812 81.6891 24.1523 79.2993 24.1523C75.9787 24.1523 73.6644 26.0642 73.6644 28.7307C73.6644 30.2401 74.7461 31.3972 76.18 32.2274C77.3371 32.8814 77.7396 33.3594 77.7396 34.0386C77.7396 34.7681 77.1611 35.3467 76.0794 35.3467C74.4694 35.3467 72.9601 34.5166 72.9601 34.5166L72.0293 37.2082C72.0293 37.2082 73.438 38.139 75.7775 38.139C79.1987 38.139 81.6388 36.4536 81.6388 33.4349C81.6891 31.7746 80.4313 30.6174 78.9471 29.7621Z" fill="#1B1B1B" fill-opacity="0.55"/>
<path d="M92.583 24.1017C90.8976 24.1017 89.5895 24.9067 88.5581 26.1142L88.5078 26.089L89.9669 18.4417H86.1432L82.4453 37.8871H86.2438L87.5016 31.246C88.0047 28.7304 89.2877 27.1959 90.4951 27.1959C91.3504 27.1959 91.6774 27.7745 91.6774 28.6046C91.6774 29.1329 91.6271 29.7618 91.5014 30.2901L90.0675 37.9123H93.866L95.3502 30.0637C95.5263 29.2335 95.6269 28.2524 95.6269 27.5732C95.6772 25.3847 94.5703 24.1017 92.583 24.1017Z" fill="#1B1B1B" fill-opacity="0.55"/>
<path d="M104.279 24.1023C99.7011 24.1023 96.6572 28.2279 96.6572 32.8314C96.6572 35.7746 98.4684 38.1644 101.89 38.1644C106.392 38.1644 109.411 34.1395 109.411 29.4353C109.436 26.6933 107.851 24.1023 104.279 24.1023ZM102.418 35.2212C101.11 35.2212 100.582 34.1143 100.582 32.7308C100.582 30.5422 101.714 26.9952 103.776 26.9952C105.135 26.9952 105.562 28.1524 105.562 29.2844C105.562 31.6491 104.43 35.2212 102.418 35.2212Z" fill="#1B1B1B" fill-opacity="0.55"/>
<path d="M119.171 24.1023C116.605 24.1023 115.146 26.3663 115.146 26.3663H115.096L115.322 24.3287H111.951C111.775 25.7123 111.473 27.8002 111.172 29.385L108.53 43.2711H112.329L113.385 37.6362H113.461C113.461 37.6362 114.241 38.1393 115.7 38.1393C120.177 38.1393 123.095 33.5609 123.095 28.9322C123.095 26.3915 121.963 24.1023 119.171 24.1023ZM115.549 35.2967C114.568 35.2967 113.989 34.7432 113.989 34.7432L114.618 31.1963C115.071 28.8316 116.303 27.2468 117.611 27.2468C118.769 27.2468 119.121 28.3285 119.121 29.3347C119.121 31.7748 117.662 35.2967 115.549 35.2967Z" fill="#1B1B1B" fill-opacity="0.55"/>
<path d="M128.529 18.6433C127.322 18.6433 126.341 19.5992 126.341 20.857C126.341 21.989 127.045 22.7689 128.127 22.7689H128.177C129.36 22.7689 130.391 21.9639 130.416 20.5552C130.441 19.4231 129.687 18.6433 128.529 18.6433Z" fill="#1B1B1B" fill-opacity="0.55"/>
<path d="M123.196 37.8874H127.02L129.611 24.4038H125.762L123.196 37.8874Z" fill="#1B1B1B" fill-opacity="0.55"/>
<path d="M139.271 24.3785H136.63L136.755 23.7496C136.982 22.4415 137.736 21.2844 139.019 21.2844C139.698 21.2844 140.227 21.4856 140.227 21.4856L140.981 18.5172C140.981 18.5172 140.327 18.1902 138.919 18.1902C137.56 18.1902 136.227 18.5675 135.196 19.448C133.888 20.5548 133.284 22.1397 132.982 23.7496L132.881 24.3785H131.12L130.567 27.2463H132.328L130.315 37.8872H134.114L136.126 27.2463H138.743L139.271 24.3785Z" fill="#1B1B1B" fill-opacity="0.55"/>
<path d="M148.427 24.4038C148.427 24.4038 146.037 30.3909 144.981 33.6612H144.931C144.855 32.6046 144 24.4038 144 24.4038H140L142.289 36.7805C142.339 37.0572 142.314 37.2333 142.214 37.4094C141.761 38.2647 141.031 39.0948 140.151 39.6986C139.447 40.2269 138.642 40.5539 138.013 40.7803L139.069 44.0002C139.849 43.8241 141.434 43.1952 142.792 41.9375C144.528 40.3023 146.138 37.8119 147.773 34.3907L152.427 24.4038H148.427V24.4038Z" fill="#1B1B1B" fill-opacity="0.55"/>
<path d="M58.9226 15.6491C58.9226 15.6491 58.5704 15.7497 57.9919 15.9258C57.8912 15.5988 57.7403 15.2214 57.5391 14.8189C56.885 13.5611 55.9039 12.8819 54.7468 12.8819C54.6713 12.8819 54.5958 12.8819 54.4952 12.9071C54.4701 12.8568 54.4197 12.8316 54.3946 12.7813C53.8915 12.2279 53.2374 11.9763 52.4576 12.0015C50.9483 12.0518 49.4389 13.1335 48.2315 15.0705C47.3762 16.4289 46.7221 18.1395 46.546 19.4728C44.8103 20.001 43.6028 20.3784 43.5777 20.4035C42.6972 20.6802 42.6721 20.7054 42.5714 21.5355C42.496 22.1644 40.1816 39.8742 40.1816 39.8742L59.1993 43.1696V15.6239C59.0484 15.6239 58.9729 15.6491 58.9226 15.6491ZM54.5204 17.0075C53.5141 17.3094 52.4073 17.6615 51.3256 17.9886C51.6275 16.8062 52.2312 15.6239 52.9356 14.8441C53.2123 14.5674 53.5896 14.2403 54.0173 14.0391C54.4449 14.9447 54.5455 16.1773 54.5204 17.0075ZM52.4576 13.0329C52.8098 13.0329 53.1117 13.1083 53.3632 13.2593C52.9607 13.4605 52.5582 13.7875 52.1809 14.1649C51.225 15.1963 50.4955 16.8062 50.1936 18.3407C49.288 18.6175 48.3824 18.8942 47.5523 19.1457C48.1057 16.7308 50.1433 13.0832 52.4576 13.0329ZM49.5395 26.8686C49.6402 28.4786 53.8915 28.8308 54.143 32.6293C54.3191 35.6228 52.5582 37.6605 50.0175 37.8114C46.9485 38.0126 45.2631 36.2014 45.2631 36.2014L45.9171 33.4343C45.9171 33.4343 47.6026 34.7172 48.961 34.6166C49.8414 34.5663 50.1684 33.8368 50.1433 33.3337C50.0175 31.2206 46.546 31.3463 46.3196 27.8748C46.1184 24.9567 48.0302 22.0135 52.2564 21.7368C53.8915 21.6362 54.7216 22.0387 54.7216 22.0387L53.7657 25.6611C53.7657 25.6611 52.684 25.158 51.4011 25.2586C49.5396 25.3844 49.5144 26.5667 49.5395 26.8686ZM55.5266 16.7056C55.5266 15.9509 55.426 14.8692 55.0738 13.9636C56.231 14.19 56.7844 15.473 57.0359 16.2528C56.5831 16.3786 56.08 16.5295 55.5266 16.7056Z" fill="#1B1B1B" fill-opacity="0.55"/>
<path d="M59.7773 43.12L67.6762 41.1579C67.6762 41.1579 64.2802 18.1905 64.2551 18.0396C64.2299 17.8887 64.1041 17.788 63.9783 17.788C63.8526 17.788 61.6389 17.7377 61.6389 17.7377C61.6389 17.7377 60.2805 16.4296 59.7773 15.9265V43.12Z" fill="#1B1B1B" fill-opacity="0.55"/>
</g>
<defs>
<clipPath id="clip0_2647_42212">
<rect width="112.245" height="32.0003" fill="white" transform="translate(40.1816 11.9998)"/>
</clipPath>
</defs>
</svg>
