<svg width="189" height="56" viewBox="0 0 189 56" fill="none" xmlns="http://www.w3.org/2000/svg">
<g clip-path="url(#clip0_17529_133196)">
<path d="M66.8306 33.2239L66.816 33.1775L76.0699 24.7057V20.6238H61.2235V24.7057H70.0913L70.1059 24.7448L60.9424 33.2239V37.3059H76.219V33.2239H66.8306Z" fill="#1B1B1B" fill-opacity="0.55"/>
<path d="M85.3321 20.235C83.6196 20.235 82.2239 20.4933 81.1451 21.0099C80.1403 21.46 79.2937 22.2017 78.7155 23.1388C78.1624 24.082 77.815 25.1316 77.6963 26.2185L82.201 26.8516C82.364 25.8918 82.69 25.2115 83.1787 24.8107C83.7345 24.3914 84.4193 24.1796 85.1146 24.2118C86.0288 24.2118 86.692 24.4563 87.1043 24.9451C87.5125 25.4339 87.7202 26.111 87.7202 27.0032V27.448H83.389C81.1842 27.448 79.6003 27.9369 78.6374 28.9146C77.6743 29.8923 77.1937 31.1828 77.1953 32.7863C77.1953 34.4288 77.6759 35.651 78.6374 36.4526C79.5987 37.2544 80.8078 37.6528 82.2647 37.6478C84.0717 37.6478 85.4618 37.0263 86.4345 35.783C87.009 35.0188 87.4192 34.1443 87.6395 33.214H87.8033L88.4242 37.2958H92.5061V26.9592C92.5061 24.8229 91.9431 23.1681 90.8172 21.9949C89.691 20.8217 87.8628 20.235 85.3321 20.235ZM86.7596 32.9769C86.1118 33.5171 85.2638 33.786 84.2078 33.786C83.3375 33.786 82.7331 33.6336 82.3942 33.3289C82.2291 33.1847 82.0976 33.006 82.0093 32.8053C81.9211 32.6047 81.878 32.387 81.8834 32.1679C81.8736 31.9612 81.9063 31.7547 81.9789 31.561C82.0516 31.3673 82.1629 31.1904 82.3061 31.0411C82.461 30.8958 82.6438 30.7834 82.8434 30.7108C83.043 30.6381 83.2551 30.6066 83.4672 30.6182H87.7275V30.8993C87.7363 31.2966 87.6534 31.6906 87.4856 32.0508C87.3177 32.4111 87.0693 32.7279 86.7596 32.9769Z" fill="#1B1B1B" fill-opacity="0.55"/>
<path d="M117.186 20.6238H112.364V37.3082H117.186V20.6238Z" fill="#1B1B1B" fill-opacity="0.55"/>
<path d="M145.658 20.6238C144.296 20.6238 143.222 21.1045 142.437 22.0659C141.873 22.7568 141.444 23.7777 141.151 25.1286H141.009L140.379 20.6238H136.26V37.3059H141.082V28.751C141.082 27.6722 141.335 26.8453 141.84 26.27C142.345 25.6948 143.277 25.4072 144.636 25.4072H146.467V20.6238H145.658Z" fill="#1B1B1B" fill-opacity="0.55"/>
<path d="M131.479 21.1692C130.353 20.4995 128.933 20.1654 127.218 20.167C124.52 20.167 122.408 20.9353 120.883 22.472C119.358 24.0086 118.595 26.1269 118.595 28.827C118.556 30.4594 118.913 32.077 119.634 33.542C120.294 34.8474 121.322 35.9309 122.592 36.6583C123.869 37.3967 125.389 37.7666 127.15 37.768C128.674 37.768 129.946 37.5334 130.968 37.0643C131.929 36.6427 132.765 35.9821 133.397 35.1455C134 34.3241 134.447 33.3997 134.717 32.4176L130.562 31.2542C130.387 31.8928 130.051 32.4754 129.584 32.9456C129.115 33.4149 128.329 33.6495 127.226 33.6495C125.914 33.6495 124.936 33.2739 124.293 32.5227C123.826 31.9801 123.533 31.2053 123.403 30.2007H134.781C134.827 29.7314 134.852 29.3379 134.852 29.0201V27.9813C134.879 26.5858 134.591 25.2021 134.009 23.9336C133.463 22.7781 132.581 21.8145 131.479 21.1692ZM127.079 24.1438C129.035 24.1438 130.143 25.106 130.406 27.0305H123.488C123.598 26.3884 123.864 25.7831 124.263 25.2682C124.897 24.517 125.836 24.1422 127.079 24.1438Z" fill="#1B1B1B" fill-opacity="0.55"/>
<path d="M114.827 13.8998C114.464 13.8874 114.103 13.9481 113.764 14.0783C113.425 14.2085 113.116 14.4054 112.855 14.6575C112.597 14.9119 112.395 15.2171 112.262 15.5538C112.128 15.8904 112.066 16.251 112.08 16.6128C112.067 16.977 112.129 17.3399 112.262 17.679C112.396 18.0181 112.598 18.326 112.856 18.5836C113.114 18.8411 113.422 19.0428 113.761 19.176C114.1 19.3092 114.463 19.371 114.827 19.3577C115.189 19.3714 115.55 19.3095 115.886 19.1761C116.223 19.0428 116.528 18.8407 116.783 18.5829C117.035 18.3224 117.232 18.0136 117.361 17.675C117.491 17.3365 117.551 16.9752 117.538 16.6128C117.554 16.2527 117.496 15.8929 117.366 15.5567C117.236 15.2204 117.037 14.915 116.782 14.6599C116.527 14.4048 116.222 14.2057 115.886 14.0752C115.549 13.9448 115.19 13.8858 114.83 13.9022L114.827 13.8998Z" fill="#1B1B1B" fill-opacity="0.55"/>
<path d="M104.866 20.167C103.224 20.167 101.904 20.6827 100.907 21.7142C100.168 22.4785 99.6268 23.6191 99.2812 25.1362H99.1272L98.4967 20.6314H94.3779V42.1018H99.2005V33.2584H99.3766C99.5237 33.8481 99.73 34.4213 99.9925 34.9694C100.4 35.8622 101.069 36.6105 101.911 37.1154C102.784 37.5917 103.767 37.8288 104.761 37.8024C106.78 37.8024 108.318 37.0162 109.374 35.4436C110.429 33.8711 110.957 31.677 110.957 28.8612C110.957 26.1416 110.447 24.0127 109.425 22.4744C108.403 20.9362 106.884 20.167 104.866 20.167ZM105.355 32.2563C104.793 33.071 103.913 33.4784 102.715 33.4784C102.222 33.5012 101.729 33.406 101.28 33.2007C100.83 32.9954 100.436 32.6859 100.129 32.2979C99.5052 31.5141 99.194 30.441 99.1957 29.0788V28.761C99.1957 27.3776 99.5069 26.3184 100.129 25.5835C100.752 24.8486 101.614 24.4852 102.715 24.4934C103.934 24.4934 104.82 24.8804 105.372 25.6544C105.925 26.4284 106.201 27.5079 106.201 28.893C106.204 30.3253 105.924 31.4464 105.36 32.2563H105.355Z" fill="#1B1B1B" fill-opacity="0.55"/>
<path d="M59.0751 33.2242H42.3906V37.3111H59.0751V33.2242Z" fill="#1B1B1B" fill-opacity="0.55"/>
</g>
<defs>
<clipPath id="clip0_17529_133196">
<rect width="104.077" height="28.2036" fill="white" transform="translate(42.3906 13.8982)"/>
</clipPath>
</defs>
</svg>
