<svg width="60" height="60" viewBox="0 0 60 60" fill="none" xmlns="http://www.w3.org/2000/svg">
    <circle cx="30" cy="30" r="30" fill="#EDD3FF"/>
    <g clip-path="url(#clip0)">
        <path fill-rule="evenodd" clip-rule="evenodd" d="M42.2597 26.961L46.39 25.4947C46.594 25.425 46.7914 25.6344 46.6689 25.8121L34.4211 44.7017C34.2986 44.8858 34.0809 45 33.8495 45H25.834C25.6027 45 25.3848 44.8794 25.2624 44.6953L13.035 25.8121C12.9193 25.6344 13.1099 25.4186 13.3208 25.4947L17.4306 26.9673C17.6075 27.0308 17.7708 26.8658 17.7028 26.7071L13.0963 16.2785C13.0282 16.1198 13.1915 15.9611 13.3616 16.0182L22.112 18.8745C22.2821 18.9253 22.4182 19.0459 22.4862 19.2046L28.4401 33.1686C28.5149 33.3464 28.3312 33.5178 28.1406 33.4542L24.4323 32.1848C24.2214 32.115 24.0376 32.3245 24.1465 32.5021L29.5899 41.1281C29.7057 41.3186 29.9982 41.3186 30.1139 41.1281L35.5574 32.5021C35.6662 32.3245 35.4758 32.115 35.2716 32.1848L31.5632 33.4542C31.3727 33.5241 31.189 33.3464 31.2639 33.1686L37.204 19.1983C37.2721 19.0459 37.4082 18.9253 37.5783 18.8682L46.3286 16.0119C46.4988 15.9548 46.6621 16.1135 46.594 16.2721L41.9875 26.7007C41.9195 26.8594 42.0896 27.0245 42.2597 26.961Z" fill="url(#paint0_linear)"/>
    </g>
    <defs>
        <linearGradient id="paint0_linear" x1="17.4942" y1="19.8667" x2="39.0005" y2="44.8634" gradientUnits="userSpaceOnUse">
            <stop stop-color="#7946E3"/>
            <stop offset="1" stop-color="#B645E9"/>
        </linearGradient>
        <clipPath id="clip0">
            <rect width="33.7067" height="32" fill="white" transform="translate(13 14)"/>
        </clipPath>
    </defs>
</svg>
