<svg width="60" height="60" viewBox="0 0 60 60" fill="none" xmlns="http://www.w3.org/2000/svg">
<circle cx="30" cy="30" r="30" fill="#FFEAEC"/>
<path fill-rule="evenodd" clip-rule="evenodd" d="M26.1111 16L23.7778 19.6787L19.1111 21.5091V29.9789C19.1111 32.7268 19.6528 34.5052 20.3887 35.82C21.1396 37.1618 22.142 38.1223 23.3222 39.2386C24.8231 40.6585 27.9428 42.9207 29.9639 44.323C32.5291 42.4129 36.6566 39.2587 38.2334 37.7672C40.1481 35.956 40.8889 33.4784 40.8889 29.9789V21.5091L36.2222 19.6787L33.8889 16L44 19.3195V29.9789C44 33.8366 43.1853 37.2449 40.4333 39.8481C38.4834 41.6926 33.2633 45.6282 30.955 47.3265L30.0396 48L29.0959 47.3624C27.2938 46.1448 23.0937 43.1844 21.1223 41.3196L21.0732 41.2731C19.9314 40.1933 18.624 38.9567 17.6391 37.197C16.6249 35.3849 16 33.1167 16 29.9789V19.3195L26.1111 16Z" fill="#FC354A"/>
<path d="M30 40.2792L26.1111 37.3362L30 29.9789L33.8889 37.3362L30 40.2792Z" fill="#FC354A"/>
<path d="M30 24.0931L23.7778 35.129C21.9111 33.3633 21.4444 32.1861 21.4444 29.9789L30 16C32.0741 19.1882 36.6889 26.4474 38.5556 29.9789C38.5556 32.9219 37 34.1481 36.2222 35.129L30 24.0931Z" fill="#FC354A"/>
</svg>
