<svg width="60" height="60" viewBox="0 0 60 60" fill="none" xmlns="http://www.w3.org/2000/svg">
    <circle cx="30" cy="30" r="30" fill="#CCE1FF"/>
    <path fill-rule="evenodd" clip-rule="evenodd" d="M36.1213 19.6619C36.1213 17.6181 34.5884 16 32.7149 16V16.0852H19.515C17.8969 16.0852 16.5343 17.2774 16.1937 18.9806L14.0647 29.7961C13.8092 31.1586 14.3202 32.6064 15.4273 33.458L27.2646 42.5702C27.6904 42.8257 28.1162 43.0811 28.6272 43.1663C30.5007 43.5921 32.2891 42.2295 32.6297 40.2708L33.7368 33.8838C31.182 33.0322 29.7343 32.0954 29.2233 30.9031C28.542 29.1999 28.7975 27.3264 30.2452 26.2193C31.182 25.538 32.8001 25.1974 35.1846 25.3677L36.0362 20.3432C36.1213 20.0877 36.1213 19.9174 36.1213 19.6619ZM35.0994 29.1999C35.0994 27.7522 33.9923 26.6451 32.5446 26.6451C31.0969 26.6451 29.9898 27.7522 29.9898 29.1999C29.9898 30.6477 31.0969 31.7548 32.5446 31.7548C33.9923 31.7548 35.0994 30.6477 35.0994 29.1999ZM39.6131 19.4917H40.2092C40.9757 19.4917 41.5718 20.4285 41.5718 21.5356V21.9614L38.2505 39.5897C38.0802 40.5264 37.4841 41.2077 36.8028 41.0374C36.7176 41.0374 36.2918 40.8671 35.5254 40.5264C35.1847 40.2709 35.0144 39.6748 35.0996 39.1639L38.3357 21.1949C38.4209 20.173 39.017 19.4917 39.6131 19.4917ZM44.5522 22.2168H44.978C45.489 22.2168 46 22.8981 46 23.7497V24.0052L43.2748 37.8012C43.1897 38.5677 42.6787 39.0786 42.1677 38.9083C42.1252 38.9083 42.04 38.8657 41.891 38.7912L41.891 38.7912L41.8909 38.7912C41.7419 38.7167 41.529 38.6102 41.231 38.4825C40.9755 38.3122 40.8052 37.8864 40.8903 37.4606L43.6155 23.409C43.7006 22.7278 44.0413 22.2168 44.5522 22.2168Z" fill="#113362"/>
</svg>
