<svg width="60" height="60" viewBox="0 0 60 60" fill="none" xmlns="http://www.w3.org/2000/svg">
    <circle cx="30" cy="30" r="30" fill="#07090C"/>
    <g clip-path="url(#clip0)">
        <path d="M14 18H15.3483V26.32L18.8875 23.12H20.7413L16.8651 26.56L20.9099 30.48H19.056L15.3483 26.8V35.6L18.7189 32.56H20.5728L16.8651 35.84L21.0784 39.92H19.1403L15.3483 36.16V39.92H14V18Z" fill="white"/>
        <path fill-rule="evenodd" clip-rule="evenodd" d="M29.168 27.28H22.7637C22.7637 28.48 24.1963 29.68 25.4603 29.68C26.8928 29.68 27.5669 28.96 27.904 28.56L28.8309 29.28C27.4827 30.64 26.1344 30.64 25.4603 30.64C22.0053 30.64 21.4997 27.6 21.4997 27.04C21.4997 26.48 21.6683 22.96 25.5445 22.96C28.6456 22.96 29.2523 25.84 29.168 27.28ZM27.8197 26.32H22.7637C22.848 25.5733 23.4884 24.08 25.376 24.08C27.2636 24.08 27.7916 25.5733 27.8197 26.32Z" fill="white"/>
        <path fill-rule="evenodd" clip-rule="evenodd" d="M31.6117 27.28H38.016C38.1003 25.84 37.4936 22.96 34.3925 22.96C30.5163 22.96 30.3477 26.48 30.3477 27.04C30.3477 27.6 30.8533 30.64 34.3083 30.64C34.9824 30.64 36.3307 30.64 37.6789 29.28L36.752 28.56C36.4149 28.96 35.7408 29.68 34.3083 29.68C33.0443 29.68 31.6117 28.48 31.6117 27.28ZM31.6117 26.32H36.6677C36.6396 25.5733 36.1116 24.08 34.224 24.08C32.3364 24.08 31.696 25.5733 31.6117 26.32Z" fill="white"/>
        <path fill-rule="evenodd" clip-rule="evenodd" d="M29.0837 36.56H22.6795C22.6795 37.76 24.112 38.96 25.376 38.96C26.8085 38.96 27.4827 38.24 27.8197 37.84L28.7467 38.56C27.3984 39.92 26.0501 39.92 25.376 39.92C21.9211 39.92 21.4155 36.88 21.4155 36.32C21.4155 35.76 21.584 32.24 25.4603 32.24C28.5613 32.24 29.168 35.12 29.0837 36.56ZM27.7355 35.6H22.6795C22.7637 34.8533 23.4042 33.36 25.2917 33.36C27.1793 33.36 27.7074 34.8533 27.7355 35.6Z" fill="white"/>
        <path d="M31.1904 32.56H29.6736L33.0443 39.92L32.6229 40.96C32.0331 42.48 31.5275 42.48 31.0219 42.48C30.6174 42.48 30.2916 42.4267 30.1792 42.4L29.9264 43.44C30.0612 43.568 30.7129 43.6 31.0219 43.6C32.3701 43.6 33.1004 42.6933 33.2971 42.24L37.4261 32.56H35.9093L33.6341 38.32L31.1904 32.56Z" fill="white"/>
        <path fill-rule="evenodd" clip-rule="evenodd" d="M43.8304 30.8C45.9712 30.8 47.7067 29.045 47.7067 26.88C47.7067 24.715 45.9712 22.96 43.8304 22.96C42.602 22.96 41.507 23.5379 40.7968 24.4395V23.12H39.4485V34.16H40.7968V29.3205C41.507 30.2221 42.602 30.8 43.8304 30.8ZM46.3584 26.88C46.3584 28.4264 45.1134 29.68 43.5776 29.68C42.0418 29.68 40.7968 28.4264 40.7968 26.88C40.7968 25.3336 42.0418 24.08 43.5776 24.08C45.1134 24.08 46.3584 25.3336 46.3584 26.88Z" fill="white"/>
    </g>
    <defs>
        <clipPath id="clip0">
            <rect width="33.7067" height="32" fill="white" transform="translate(14 15)"/>
        </clipPath>
    </defs>
</svg>
