<svg width="60" height="60" viewBox="0 0 60 60" fill="none" xmlns="http://www.w3.org/2000/svg">
<circle cx="30" cy="30" r="30" fill="#ADF4EC"/>
<circle cx="30" cy="30" r="16" fill="#4794A2"/>
<path fill-rule="evenodd" clip-rule="evenodd" d="M26.0124 20.8272C27.2319 20.2969 28.5787 20 29.9997 20C35.5248 20 40 24.4752 40 30.0109C40 31.4001 39.7137 32.7257 39.2046 33.924L28.3878 29.3321H35.1642C34.8355 26.7658 32.6509 24.7933 29.9997 24.7933C29.4589 24.7933 28.9287 24.8676 28.4408 25.0266L26.0124 20.8272ZM24.7933 30.0106C24.7933 32.8845 27.1264 35.2176 30.0002 35.2176C30.3926 35.2176 30.7744 35.1645 31.135 35.0903L33.6377 39.3216C32.5136 39.7564 31.2834 40.0003 30.0002 40.0003C24.4752 40.0003 20 35.5251 20 30C20 28.7487 20.2333 27.5503 20.6469 26.4475L25.0584 28.3775C24.8888 28.8971 24.7933 29.438 24.7933 30.0106Z" fill="white"/>
</svg>
